<?xml version="1.0" encoding="utf-8"?>
<!-- Generator: Adobe Illustrator 23.0.2, SVG Export Plug-In . SVG Version: 6.00 Build 0)  -->
<svg version="1.1" id="Layer_1" xmlns="http://www.w3.org/2000/svg" xmlns:xlink="http://www.w3.org/1999/xlink" x="0px" y="0px"
	 viewBox="0 0 288 288" style="enable-background:new 0 0 288 288;" xml:space="preserve">
<style type="text/css">
	.st0{fill:url(#SVGID_1_);}
	.st1{fill:url(#SVGID_2_);}
	.st2{fill:url(#SVGID_3_);}
	.st3{fill:url(#SVGID_4_);}
	.st4{fill:url(#SVGID_5_);}
	.st5{fill:url(#SVGID_6_);}
	.st6{fill:#151C2C;}
	.st7{fill:url(#SVGID_7_);}
	.st8{fill:url(#SVGID_8_);}
	.st9{fill:url(#SVGID_9_);}
	.st10{fill:url(#SVGID_10_);}
	.st11{fill:url(#SVGID_11_);}
	.st12{fill:url(#SVGID_12_);}
	.st13{fill:url(#SVGID_13_);}
	.st14{fill:url(#SVGID_14_);}
	.st15{fill:url(#SVGID_15_);}
	.st16{fill:url(#SVGID_16_);}
	.st17{fill:url(#SVGID_17_);}
	.st18{fill:url(#SVGID_18_);}
	.st19{fill:url(#SVGID_19_);}
	.st20{fill:url(#SVGID_20_);}
	.st21{fill:url(#SVGID_21_);}
	.st22{fill:url(#SVGID_22_);}
	.st23{fill:url(#SVGID_23_);}
	.st24{fill:url(#SVGID_24_);}
	.st25{fill:url(#SVGID_25_);}
	.st26{fill:url(#SVGID_26_);}
	.st27{opacity:0.6;fill:url(#SVGID_27_);}
	.st28{fill:#141A2A;}
</style>
<g>
	<linearGradient id="SVGID_1_" gradientUnits="userSpaceOnUse" x1="13.8687" y1="239.3655" x2="124.3712" y2="173.5111">
		<stop  offset="0" style="stop-color:#EEBE47"/>
		<stop  offset="0.1204" style="stop-color:#F8DB77"/>
		<stop  offset="0.2097" style="stop-color:#FFEE96"/>
		<stop  offset="0.3172" style="stop-color:#EEA54C"/>
		<stop  offset="0.4462" style="stop-color:#A2621E"/>
		<stop  offset="0.6667" style="stop-color:#EEA54C"/>
		<stop  offset="1" style="stop-color:#EEBE47"/>
	</linearGradient>
	<path class="st0" d="M78.6,218.72c-16.35,7.26-29.93,15.05-44.65,25.54c0.28-7.41,0.58-11.16,1.56-18.71
		c-6.92-2.07-10.49-2.94-17.84-4.28c15.74-12.53,33.23-22.55,51.76-29.6C73.1,202.48,74.93,207.9,78.6,218.72z"/>
	<linearGradient id="SVGID_2_" gradientUnits="userSpaceOnUse" x1="-9.9626" y1="231.85" x2="147.9718" y2="166.1994">
		<stop  offset="0" style="stop-color:#D28B34"/>
		<stop  offset="0.0918" style="stop-color:#D89B4F"/>
		<stop  offset="0.2097" style="stop-color:#DEAE6E"/>
		<stop  offset="0.4462" style="stop-color:#9A4816"/>
		<stop  offset="0.6667" style="stop-color:#D27837"/>
		<stop  offset="1" style="stop-color:#D28B34"/>
	</linearGradient>
	<path class="st1" d="M78.63,218.8c-12.13-2.73-18.6-3.53-32.02-3.61c-5.21-10.09-7.81-15.13-13.03-25.22
		c14.93-0.79,22.16-0.36,35.87,1.77C73.12,202.56,74.96,207.97,78.63,218.8z"/>
	
		<linearGradient id="SVGID_3_" gradientUnits="userSpaceOnUse" x1="-2065.8076" y1="239.3861" x2="-1955.3018" y2="173.5297" gradientTransform="matrix(-1 0 0 1 -1807.3262 0)">
		<stop  offset="0" style="stop-color:#EEBE47"/>
		<stop  offset="0.1204" style="stop-color:#F8DB77"/>
		<stop  offset="0.2097" style="stop-color:#FFEE96"/>
		<stop  offset="0.3172" style="stop-color:#EEA54C"/>
		<stop  offset="0.4462" style="stop-color:#A2621E"/>
		<stop  offset="0.6667" style="stop-color:#EEA54C"/>
		<stop  offset="1" style="stop-color:#EEBE47"/>
	</linearGradient>
	<path class="st2" d="M193.75,218.74c16.36,7.26,29.93,15.05,44.65,25.54c-0.28-7.41-0.58-11.16-1.56-18.71
		c6.92-2.07,10.49-2.94,17.84-4.28c-15.74-12.53-33.23-22.55-51.76-29.6C199.25,202.5,197.42,207.92,193.75,218.74z"/>
	
		<linearGradient id="SVGID_4_" gradientUnits="userSpaceOnUse" x1="-2089.6445" y1="231.8718" x2="-1931.693" y2="166.2141" gradientTransform="matrix(-1 0 0 1 -1807.3262 0)">
		<stop  offset="0" style="stop-color:#D28B34"/>
		<stop  offset="0.0918" style="stop-color:#D89B4F"/>
		<stop  offset="0.2097" style="stop-color:#DEAE6E"/>
		<stop  offset="0.4462" style="stop-color:#9A4816"/>
		<stop  offset="0.6667" style="stop-color:#D27837"/>
		<stop  offset="1" style="stop-color:#D28B34"/>
	</linearGradient>
	<path class="st3" d="M193.72,218.82c12.13-2.72,18.59-3.53,32.02-3.61c5.21-10.09,7.82-15.13,13.03-25.22
		c-14.93-0.79-22.16-0.36-35.88,1.77C199.22,202.58,197.39,207.99,193.72,218.82z"/>
	<linearGradient id="SVGID_5_" gradientUnits="userSpaceOnUse" x1="-38.1189" y1="121.0338" x2="321.9684" y2="121.0338">
		<stop  offset="0" style="stop-color:#EEBE47"/>
		<stop  offset="0.1204" style="stop-color:#F8DB77"/>
		<stop  offset="0.2097" style="stop-color:#FFEE96"/>
		<stop  offset="0.4462" style="stop-color:#A2621E"/>
		<stop  offset="0.6667" style="stop-color:#EEA54C"/>
		<stop  offset="1" style="stop-color:#EEBE47"/>
	</linearGradient>
	<path class="st4" d="M148.88,232.87c-6.42-3.02-16.92-3.02-23.34,0c-6.42,3.02-15.57,1.19-20.35-4.05
		c-4.77-5.24-14.48-9.26-21.56-8.93c-7.08,0.33-14.85-4.86-17.25-11.53c-2.41-6.67-9.83-14.1-16.5-16.5
		c-6.67-2.41-11.86-10.17-11.53-17.25c0.33-7.08-3.69-16.78-8.93-21.56c-5.24-4.78-7.06-13.93-4.05-20.35
		c3.02-6.42,3.02-16.92,0-23.34c-3.01-6.42-1.19-15.58,4.05-20.35c5.24-4.78,9.26-14.48,8.93-21.56
		c-0.33-7.08,4.86-14.85,11.53-17.25c6.67-2.41,14.1-9.83,16.5-16.5c2.41-6.67,10.17-11.86,17.25-11.53
		c7.08,0.33,16.79-3.69,21.56-8.93c4.78-5.24,13.93-7.06,20.35-4.05c6.42,3.02,16.92,3.02,23.34,0c6.42-3.02,15.58-1.2,20.35,4.05
		c4.77,5.24,14.48,9.26,21.56,8.93c7.08-0.33,14.85,4.86,17.25,11.53s9.83,14.1,16.5,16.5c6.67,2.41,11.86,10.17,11.53,17.25
		c-0.33,7.08,3.69,16.78,8.93,21.56c5.24,4.78,7.06,13.93,4.05,20.35c-3.02,6.42-3.02,16.92,0,23.34
		c3.02,6.42,1.19,15.58-4.05,20.35c-5.24,4.78-9.26,14.48-8.93,21.56c0.33,7.08-4.86,14.85-11.53,17.25
		c-6.67,2.41-14.1,9.83-16.5,16.5c-2.41,6.67-10.17,11.86-17.25,11.53c-7.08-0.33-16.79,3.69-21.56,8.93
		C164.46,234.07,155.3,235.89,148.88,232.87z"/>
	
		<linearGradient id="SVGID_6_" gradientUnits="userSpaceOnUse" x1="-1343.7145" y1="-2055.2068" x2="-1343.7145" y2="-1810.4399" gradientTransform="matrix(-1 0 0 -1 -1206.501 -1807.166)">
		<stop  offset="0" style="stop-color:#EEBE47"/>
		<stop  offset="0.1204" style="stop-color:#F8DB77"/>
		<stop  offset="0.2097" style="stop-color:#FFEE96"/>
		<stop  offset="0.4462" style="stop-color:#A2621E"/>
		<stop  offset="0.6667" style="stop-color:#EEA54C"/>
		<stop  offset="1" style="stop-color:#EEBE47"/>
	</linearGradient>
	<path class="st5" d="M26.77,132.55c2.98-6.34,2.98-16.71,0-23.05c-2.98-6.34-1.18-15.38,4-20.09c5.18-4.72,9.15-14.3,8.82-21.29
		c-0.33-6.99,4.8-14.66,11.38-17.04c6.59-2.37,13.92-9.71,16.29-16.29c2.37-6.59,10.04-11.71,17.04-11.38
		c6.99,0.33,16.57-3.64,21.29-8.82c4.72-5.18,13.76-6.97,20.1-4s16.71,2.98,23.05,0c6.34-2.98,15.38-1.18,20.1,4
		c4.71,5.18,14.29,9.15,21.29,8.82c6.99-0.33,14.66,4.8,17.04,11.38c2.37,6.59,9.71,13.92,16.29,16.29
		c6.59,2.38,11.71,10.04,11.39,17.04c-0.33,6.99,3.64,16.58,8.82,21.29c5.18,4.72,6.98,13.76,4,20.09c-2.98,6.34-2.98,16.71,0,23.05
		c2.98,6.34,1.18,15.38-4,20.1c-5.18,4.72-9.14,14.29-8.82,21.29c0.33,7-4.8,14.66-11.39,17.04s-13.92,9.71-16.29,16.3
		c-2.37,6.58-10.04,11.71-17.04,11.38c-6.99-0.33-16.58,3.64-21.29,8.82c-4.72,5.18-13.76,6.98-20.1,4
		c-6.34-2.98-16.71-2.98-23.05,0c-6.34,2.98-15.38,1.18-20.1-4c-4.72-5.18-14.29-9.14-21.29-8.82c-6.99,0.33-14.66-4.8-17.04-11.38
		c-2.37-6.59-9.71-13.92-16.29-16.3s-11.71-10.04-11.38-17.04c0.33-7-3.64-16.57-8.82-21.29C25.6,147.93,23.8,138.89,26.77,132.55z"
		/>
	<g>
		<path class="st6" d="M135.38,224.67c0-1.07,0.86-1.95,1.93-1.95l0,0c1.09,0,1.94,0.87,1.97,1.95l0,0c0,1.07-0.88,1.95-1.95,1.95
			l0,0C136.24,226.62,135.38,225.75,135.38,224.67z M126.98,226.14c-1.07-0.1-1.85-1.05-1.75-2.12l0,0
			c0.11-1.07,1.07-1.87,2.14-1.75l0,0c1.05,0.1,1.85,1.05,1.73,2.12l0,0c-0.1,1.01-0.93,1.75-1.93,1.75l0,0
			C127.11,226.14,127.05,226.14,126.98,226.14z M145.54,224.36c-0.11-1.07,0.66-2.02,1.73-2.12l0,0c1.07-0.12,2.02,0.68,2.14,1.75
			l0,0c0.1,1.05-0.68,2-1.75,2.12l0,0c-0.06,0-0.14,0-0.2,0l0,0C146.48,226.12,145.64,225.38,145.54,224.36z M116.74,224.64
			c-1.05-0.21-1.75-1.23-1.54-2.28l0,0c0.21-1.07,1.23-1.75,2.3-1.54l0,0c1.05,0.21,1.73,1.23,1.52,2.28l0,0
			c-0.18,0.93-1,1.58-1.91,1.58l0,0C116.99,224.67,116.86,224.65,116.74,224.64z M155.63,223.06c-0.22-1.05,0.47-2.08,1.52-2.28l0,0
			c1.05-0.22,2.08,0.47,2.3,1.52l0,0c0.21,1.05-0.49,2.08-1.54,2.3l0,0c-0.11,0.02-0.25,0.04-0.37,0.04l0,0
			C156.62,224.64,155.8,223.99,155.63,223.06z M106.68,222.14L106.68,222.14L106.68,222.14c-1.03-0.31-1.6-1.4-1.28-2.43l0,0
			c0.29-1.03,1.38-1.62,2.41-1.3l0,0c1.03,0.31,1.62,1.4,1.31,2.43l0,0c-0.25,0.84-1.03,1.38-1.87,1.38l0,0
			C107.07,222.22,106.87,222.2,106.68,222.14z M165.53,220.78c-0.31-1.03,0.25-2.12,1.29-2.43l0,0c1.03-0.31,2.12,0.27,2.43,1.31
			l0,0c0.31,1.03-0.27,2.1-1.31,2.43l0,0c-0.18,0.06-0.37,0.08-0.56,0.08l0,0C166.55,222.17,165.79,221.62,165.53,220.78z
			 M96.93,218.66c-1-0.41-1.46-1.54-1.05-2.53l0,0c0.41-0.99,1.54-1.48,2.55-1.07l0,0c0.99,0.41,1.46,1.56,1.05,2.55l0,0
			c-0.31,0.74-1.03,1.21-1.81,1.21l0,0C97.43,218.82,97.18,218.76,96.93,218.66z M175.17,217.53c-0.43-0.99,0.06-2.14,1.05-2.55l0,0
			c0.99-0.41,2.12,0.06,2.53,1.05l0,0c0.41,0.99-0.06,2.14-1.05,2.55l0,0c-0.24,0.1-0.49,0.14-0.74,0.14l0,0
			C176.2,218.72,175.48,218.27,175.17,217.53z M87.56,214.24L87.56,214.24L87.56,214.24c-0.95-0.51-1.3-1.69-0.8-2.63l0,0
			c0.51-0.95,1.67-1.31,2.63-0.8v-0.02c0.95,0.51,1.3,1.69,0.8,2.65l0,0c-0.35,0.66-1.01,1.03-1.71,1.03l0,0
			C88.17,214.48,87.86,214.4,87.56,214.24z M184.43,213.35c-0.51-0.95-0.15-2.12,0.8-2.65v0.02c0.94-0.53,2.12-0.16,2.63,0.78l0,0
			c0.51,0.95,0.16,2.12-0.8,2.65l0,0c-0.29,0.15-0.6,0.23-0.92,0.23l0,0C185.44,214.38,184.78,213.99,184.43,213.35z M78.67,208.93
			c-0.89-0.6-1.13-1.81-0.52-2.7l0,0c0.58-0.89,1.79-1.13,2.68-0.55l0,0c0.9,0.6,1.15,1.81,0.55,2.7l0,0
			c-0.37,0.57-0.99,0.86-1.62,0.86l0,0C79.39,209.24,79,209.14,78.67,208.93z M193.23,208.27c-0.58-0.9-0.35-2.1,0.55-2.71l0,0
			c0.87-0.6,2.1-0.35,2.68,0.55l0,0c0.6,0.89,0.37,2.08-0.52,2.68l0,0c-0.33,0.23-0.7,0.33-1.09,0.33l0,0
			C194.22,209.12,193.62,208.83,193.23,208.27z M70.36,202.76c-0.84-0.68-0.95-1.91-0.27-2.74l0,0c0.68-0.84,1.91-0.95,2.75-0.27
			l0,0c0.82,0.68,0.93,1.91,0.25,2.74l0,0c-0.37,0.47-0.93,0.72-1.5,0.72l0,0C71.16,203.21,70.71,203.05,70.36,202.76z
			 M201.5,202.35c-0.68-0.84-0.56-2.06,0.27-2.75l0,0c0.84-0.68,2.06-0.56,2.75,0.27l0,0c0.68,0.84,0.56,2.06-0.27,2.75l0,0
			c-0.37,0.29-0.8,0.45-1.23,0.45l0,0C202.46,203.07,201.89,202.82,201.5,202.35z M62.67,195.81c-0.76-0.76-0.76-1.99,0-2.75l0,0
			c0.76-0.76,1.99-0.78,2.75-0.02l0,0c0.76,0.78,0.76,2,0,2.76l0,0c-0.37,0.39-0.88,0.56-1.38,0.56l0,0
			C63.55,196.38,63.04,196.2,62.67,195.81z M209.17,195.65c-0.78-0.76-0.78-1.98,0-2.74l0,0c0.76-0.76,1.98-0.76,2.74,0l0,0
			c0.76,0.76,0.76,1.98,0,2.74l0,0c-0.39,0.39-0.87,0.56-1.38,0.56l0,0C210.05,196.22,209.54,196.05,209.17,195.65z M55.7,188.14
			c0,0,0,0,0,0.02l0,0c-0.68-0.84-0.56-2.06,0.25-2.74l0,0c0.84-0.68,2.06-0.56,2.74,0.25l0,0c0.68,0.84,0.56,2.06-0.25,2.74l0,0
			c-0.37,0.29-0.8,0.45-1.25,0.45l0,0C56.64,188.86,56.09,188.63,55.7,188.14z M216.14,188.26c-0.84-0.68-0.95-1.91-0.27-2.75l0,0
			c0.68-0.84,1.91-0.95,2.72-0.27l0,0c0.84,0.68,0.95,1.91,0.27,2.75l0,0c-0.39,0.47-0.94,0.7-1.5,0.7l0,0
			C216.94,188.69,216.49,188.55,216.14,188.26z M49.51,179.85c-0.6-0.9-0.37-2.1,0.53-2.71l0,0c0.89-0.6,2.1-0.35,2.7,0.53l0,0
			c0.6,0.9,0.37,2.1-0.52,2.71l0,0c-0.33,0.23-0.72,0.33-1.09,0.33l0,0C50.5,180.71,49.88,180.42,49.51,179.85z M222.35,180.2
			c-0.9-0.6-1.15-1.81-0.55-2.71l0,0c0.6-0.89,1.81-1.13,2.7-0.52l0,0c0.9,0.58,1.13,1.81,0.53,2.68l0,0
			c-0.37,0.56-0.99,0.88-1.62,0.88l0,0C223.05,180.53,222.68,180.42,222.35,180.2z M44.16,170.98c-0.51-0.93-0.15-2.12,0.8-2.63l0,0
			c0.93-0.51,2.12-0.16,2.63,0.8l0,0c0.51,0.93,0.16,2.12-0.78,2.63l0,0c-0.29,0.16-0.62,0.24-0.93,0.24l0,0
			C45.19,172.01,44.51,171.64,44.16,170.98z M227.74,171.58c-0.95-0.51-1.31-1.69-0.8-2.63l0,0c0.51-0.95,1.67-1.3,2.63-0.8l0,0
			c0.95,0.51,1.31,1.67,0.8,2.63l0,0l0,0l0,0c-0.35,0.66-1.01,1.03-1.71,1.03l0,0C228.34,171.81,228.03,171.74,227.74,171.58z
			 M39.7,161.63c-0.41-0.99,0.06-2.14,1.05-2.55l0,0c0.99-0.41,2.14,0.06,2.55,1.05l0,0c0.41,0.99-0.06,2.12-1.05,2.53l0,0
			c-0.23,0.12-0.49,0.16-0.74,0.16l0,0C40.75,162.82,40.01,162.37,39.7,161.63z M232.26,162.47c-1-0.41-1.46-1.54-1.05-2.53l0,0
			c0.41-0.99,1.56-1.48,2.55-1.07l0,0c0.99,0.43,1.46,1.56,1.05,2.55l0,0c-0.31,0.76-1.03,1.21-1.81,1.21l0,0
			C232.76,162.62,232.51,162.59,232.26,162.47z M36.2,151.88L36.2,151.88L36.2,151.88c-0.31-1.03,0.27-2.12,1.31-2.43l0,0
			c1.01-0.31,2.1,0.27,2.41,1.3l0,0c0.33,1.01-0.25,2.1-1.29,2.41l0,0c-0.19,0.06-0.39,0.1-0.56,0.1l0,0
			C37.23,153.26,36.45,152.72,36.2,151.88z M235.85,152.97c-1.01-0.31-1.6-1.4-1.28-2.43l0,0c0.31-1.03,1.38-1.61,2.41-1.3l0,0
			c1.03,0.31,1.62,1.4,1.31,2.43l0,0c-0.25,0.84-1.03,1.38-1.85,1.38l0,0C236.25,153.05,236.05,153.03,235.85,152.97z M33.67,141.84
			L33.67,141.84L33.67,141.84c-0.21-1.05,0.49-2.08,1.54-2.3l0,0c1.05-0.21,2.08,0.49,2.28,1.54l0,0c0.21,1.05-0.47,2.08-1.52,2.28
			l0,0c-0.14,0.04-0.25,0.04-0.39,0.04l0,0C34.68,143.4,33.86,142.75,33.67,141.84z M238.52,143.16c-1.07-0.21-1.75-1.25-1.54-2.3
			l0,0c0.2-1.05,1.23-1.73,2.28-1.54l0,0c1.05,0.21,1.75,1.23,1.54,2.3l0,0c-0.2,0.91-0.99,1.56-1.91,1.56l0,0
			C238.77,143.18,238.64,143.18,238.52,143.16z M32.15,131.6c-0.12-1.07,0.66-2.02,1.73-2.14l0,0c1.07-0.1,2.02,0.68,2.14,1.75l0,0
			c0.1,1.07-0.68,2.02-1.75,2.12l0,0c-0.06,0.02-0.14,0.02-0.2,0.02l0,0C33.09,133.35,32.25,132.6,32.15,131.6z M240.18,133.12
			c-1.07-0.1-1.85-1.05-1.75-2.12l0,0c0.12-1.07,1.05-1.85,2.12-1.75l0,0c1.07,0.1,1.87,1.05,1.75,2.12l0,0
			c-0.1,1.01-0.93,1.77-1.93,1.77l0,0C240.31,133.14,240.23,133.12,240.18,133.12z M240.58,122.58c-1.07-0.1-1.85-1.05-1.75-2.12
			l0,0c0.11-1.07,1.05-1.85,2.12-1.75l0,0c1.07,0.1,1.87,1.05,1.75,2.12l0,0c-0.1,1.01-0.93,1.77-1.93,1.77l0,0
			C240.72,122.59,240.64,122.58,240.58,122.58z M31.63,121.26c0-1.09,0.87-1.97,1.95-1.97l0,0c1.07,0,1.95,0.88,1.95,1.95l0,0
			c0,1.07-0.88,1.95-1.95,1.95l0,0C32.5,123.19,31.63,122.34,31.63,121.26z M33.86,113.03c-1.07-0.1-1.87-1.05-1.75-2.12l0,0
			c0.1-1.07,1.05-1.85,2.12-1.75l0,0c1.07,0.1,1.85,1.05,1.75,2.12l0,0c-0.1,1.01-0.95,1.77-1.95,1.77l0,0
			C33.98,113.05,33.92,113.05,33.86,113.03z M238.38,110.64L238.38,110.64c-0.11-1.07,0.66-2.02,1.73-2.12l0,0
			c1.07-0.12,2.04,0.66,2.14,1.73l0,0l0,0l0,0c0.11,1.07-0.66,2.02-1.73,2.14l0,0c-0.08,0-0.14,0-0.2,0l0,0
			C239.34,112.39,238.48,111.65,238.38,110.64z M35.13,102.95c-1.05-0.22-1.75-1.23-1.54-2.28l0,0c0.2-1.07,1.23-1.75,2.28-1.54l0,0
			c1.05,0.19,1.75,1.22,1.54,2.28l0,0c-0.18,0.94-0.99,1.58-1.91,1.58l0,0C35.38,102.99,35.25,102.97,35.13,102.95z M236.89,100.79
			h0.02c-0.21-1.07,0.47-2.08,1.52-2.3l0,0c1.05-0.21,2.06,0.47,2.28,1.52l0,0c0.21,1.05-0.47,2.08-1.52,2.3l0,0
			c-0.11,0.02-0.25,0.04-0.39,0.04l0,0C237.9,102.35,237.08,101.71,236.89,100.79z M37.39,93.02c-1.03-0.29-1.62-1.38-1.3-2.41l0,0
			c0.29-1.03,1.38-1.61,2.41-1.3l0,0c1.03,0.31,1.62,1.4,1.3,2.43l0,0c-0.25,0.84-1.03,1.38-1.87,1.38l0,0
			C37.76,93.12,37.56,93.08,37.39,93.02z M234.43,91.12c-0.31-1.03,0.27-2.12,1.28-2.43l0,0c1.03-0.31,2.12,0.25,2.43,1.29l0,0
			c0.33,1.03-0.25,2.12-1.29,2.43l0,0c-0.19,0.06-0.37,0.1-0.56,0.1l0,0C235.46,92.5,234.71,91.95,234.43,91.12z M40.6,83.39
			c-0.99-0.41-1.46-1.54-1.05-2.55l0,0c0.41-0.99,1.54-1.46,2.53-1.05l0,0c1,0.41,1.48,1.54,1.07,2.55l0,0
			c-0.31,0.74-1.05,1.21-1.81,1.21l0,0C41.08,83.55,40.85,83.49,40.6,83.39z M231.05,81.74c-0.43-0.99,0.04-2.12,1.03-2.55l0,0
			c0.99-0.41,2.14,0.06,2.55,1.05l0,0c0.41,0.99-0.06,2.12-1.03,2.55l0,0c-0.25,0.1-0.51,0.16-0.76,0.16l0,0
			C232.08,82.94,231.36,82.47,231.05,81.74z M44.76,74.1c-0.95-0.51-1.32-1.67-0.82-2.63l0,0c0.51-0.95,1.69-1.3,2.65-0.8l0,0
			c0.94,0.51,1.31,1.67,0.8,2.63l0,0c-0.35,0.66-1.03,1.03-1.73,1.03l0,0C45.37,74.34,45.05,74.26,44.76,74.1z M226.75,72.74
			c-0.53-0.95-0.18-2.12,0.78-2.65l0,0c0.93-0.51,2.12-0.15,2.63,0.8l0,0c0.53,0.93,0.18,2.12-0.78,2.63l0,0
			c-0.29,0.18-0.6,0.23-0.91,0.23l0,0C227.76,73.76,227.1,73.39,226.75,72.74z M49.8,65.29c-0.9-0.6-1.13-1.81-0.55-2.7l0,0
			c0.6-0.89,1.81-1.13,2.71-0.54l0,0c0.9,0.6,1.13,1.81,0.55,2.71l0,0c-0.39,0.56-0.99,0.87-1.64,0.87l0,0
			C50.5,65.62,50.14,65.5,49.8,65.29z M221.57,64.22L221.57,64.22c-0.6-0.9-0.37-2.1,0.52-2.71l0,0c0.9-0.6,2.1-0.37,2.71,0.53l0,0
			c0.6,0.89,0.37,2.1-0.53,2.71l0,0c-0.33,0.21-0.72,0.33-1.09,0.33l0,0C222.56,65.07,221.94,64.76,221.57,64.22z M55.7,57
			c-0.83-0.68-0.97-1.91-0.29-2.74l0,0c0.68-0.84,1.91-0.95,2.75-0.27l0,0c0.84,0.68,0.95,1.91,0.27,2.75l0,0
			c-0.37,0.47-0.94,0.7-1.5,0.7l0,0C56.5,57.43,56.05,57.29,55.7,57z M215.59,56.22c-0.7-0.82-0.58-2.04,0.25-2.75l0,0
			c0.84-0.68,2.06-0.56,2.74,0.27l0,0l0,0l0,0c0.68,0.82,0.56,2.04-0.25,2.72l0,0c-0.37,0.31-0.82,0.45-1.24,0.45l0,0
			C216.53,56.92,215.98,56.69,215.59,56.22z M62.36,49.31c-0.76-0.76-0.76-1.99,0-2.75l0,0l0,0l0,0c0.76-0.76,1.98-0.76,2.74,0l0,0
			c0.76,0.76,0.78,1.99,0.02,2.75l0,0c-0.39,0.39-0.89,0.58-1.38,0.58l0,0C63.23,49.89,62.75,49.7,62.36,49.31z M208.86,48.86
			c-0.76-0.76-0.76-1.98,0-2.76l0,0c0.74-0.76,1.98-0.76,2.74,0l0,0l0,0l0,0c0.76,0.76,0.76,1.98,0,2.74l0,0
			c-0.37,0.39-0.88,0.58-1.38,0.58l0,0C209.73,49.43,209.25,49.23,208.86,48.86z M69.75,42.32c-0.7-0.82-0.56-2.05,0.25-2.75l0,0
			c0.84-0.68,2.06-0.56,2.75,0.27l0,0c0.68,0.84,0.56,2.06-0.27,2.75l0,0c-0.35,0.29-0.8,0.45-1.23,0.45l0,0
			C70.69,43.04,70.12,42.79,69.75,42.32z M201.44,42.19c-0.84-0.68-0.95-1.91-0.27-2.74l0,0c0.68-0.84,1.91-0.95,2.74-0.27l0,0
			c0,0,0,0-0.02,0l0,0c0.84,0.68,0.97,1.91,0.29,2.74l0,0c-0.39,0.47-0.95,0.7-1.52,0.7l0,0C202.24,42.62,201.81,42.48,201.44,42.19
			z M77.77,36.09c-0.6-0.89-0.35-2.1,0.52-2.7l0,0c0.9-0.6,2.1-0.37,2.71,0.52l0,0c0.6,0.9,0.37,2.1-0.53,2.71l0,0
			c-0.33,0.23-0.7,0.33-1.09,0.33l0,0C78.77,36.95,78.16,36.66,77.77,36.09z M193.4,36.27c-0.87-0.6-1.13-1.81-0.54-2.71l0,0
			c0.6-0.9,1.81-1.15,2.7-0.55l0,0c0.9,0.6,1.15,1.81,0.55,2.71l0,0c-0.37,0.56-0.99,0.86-1.62,0.86l0,0
			C194.13,36.58,193.75,36.48,193.4,36.27z M86.38,30.67c-0.51-0.94-0.16-2.12,0.8-2.63l0,0c0.93-0.51,2.12-0.15,2.63,0.78l0,0
			c0.51,0.95,0.16,2.14-0.78,2.65l0,0c-0.29,0.16-0.62,0.23-0.93,0.23l0,0C87.41,31.69,86.73,31.33,86.38,30.67z M184.84,31.15
			L184.84,31.15c-0.95-0.51-1.31-1.67-0.8-2.63l0,0c0.51-0.95,1.67-1.31,2.63-0.8l0,0c0.95,0.51,1.31,1.67,0.8,2.63l0,0
			c-0.35,0.66-1.01,1.03-1.71,1.03l0,0C185.44,31.38,185.13,31.31,184.84,31.15z M95.47,26.11c-0.41-0.99,0.06-2.12,1.05-2.53l0,0
			l0,0l0,0c0.99-0.43,2.14,0.04,2.55,1.03l0,0c0.41,0.99-0.06,2.14-1.05,2.55l0,0c-0.23,0.1-0.49,0.15-0.74,0.15l0,0
			C96.52,27.32,95.78,26.87,95.47,26.11z M175.81,26.93c-1-0.41-1.46-1.56-1.05-2.55l0,0c0.41-0.99,1.54-1.46,2.53-1.05l0,0
			c0.99,0.39,1.48,1.54,1.07,2.53l0,0c-0.31,0.76-1.03,1.21-1.81,1.21l0,0C176.32,27.06,176.06,27.02,175.81,26.93z M104.96,22.49
			c-0.31-1.03,0.27-2.12,1.31-2.43l0,0c1.01-0.31,2.1,0.25,2.43,1.28l0,0c0.31,1.03-0.27,2.12-1.31,2.43l0,0
			c-0.19,0.06-0.37,0.1-0.56,0.1l0,0C105.99,23.87,105.22,23.33,104.96,22.49z M166.41,23.6c-1.03-0.31-1.62-1.4-1.3-2.43l0,0
			c0.31-1.03,1.4-1.62,2.43-1.3l0,0c1.03,0.31,1.6,1.4,1.31,2.41l0,0c-0.25,0.86-1.03,1.4-1.87,1.4l0,0
			C166.78,23.68,166.6,23.64,166.41,23.6z M114.77,19.8c-0.21-1.05,0.47-2.08,1.54-2.28l0,0c1.05-0.21,2.06,0.47,2.28,1.52l0,0
			c0.22,1.05-0.47,2.08-1.52,2.3l0,0c-0.14,0.02-0.25,0.04-0.39,0.04l0,0C115.76,21.38,114.97,20.74,114.77,19.8z M156.74,21.21
			L156.74,21.21c-1.07-0.2-1.75-1.23-1.54-2.28l0,0c0.19-1.05,1.22-1.75,2.28-1.54l0,0c1.05,0.19,1.73,1.22,1.54,2.28l0,0
			c-0.17,0.94-0.99,1.58-1.91,1.58l0,0C156.97,21.24,156.85,21.22,156.74,21.21z M124.79,18.11c-0.1-1.07,0.68-2.02,1.75-2.14l0,0
			c1.05-0.1,2.02,0.68,2.12,1.75l0,0c0.12,1.07-0.66,2.02-1.73,2.12l0,0c-0.08,0.02-0.14,0.02-0.2,0.02l0,0
			C125.75,19.86,124.89,19.1,124.79,18.11z M146.87,19.78c-1.07-0.1-1.87-1.05-1.77-2.12l0,0c0.1-1.07,1.05-1.85,2.12-1.75l0,0
			c1.07,0.1,1.87,1.05,1.75,2.12l0,0c-0.08,1.01-0.94,1.77-1.93,1.77l0,0C146.98,19.8,146.93,19.8,146.87,19.78z M134.94,17.39
			c0-1.07,0.87-1.95,1.95-1.95l0,0c1.07,0,1.94,0.87,1.94,1.95l0,0c0,1.07-0.86,1.95-1.94,1.95l0,0
			C135.81,19.34,134.94,18.48,134.94,17.39z"/>
	</g>
	<linearGradient id="SVGID_7_" gradientUnits="userSpaceOnUse" x1="38.9258" y1="121.0338" x2="235.5042" y2="121.0338">
		<stop  offset="0" style="stop-color:#EEBE47"/>
		<stop  offset="0.1204" style="stop-color:#F8DB77"/>
		<stop  offset="0.2097" style="stop-color:#FFEE96"/>
		<stop  offset="0.4462" style="stop-color:#A2621E"/>
		<stop  offset="0.6667" style="stop-color:#EEA54C"/>
		<stop  offset="1" style="stop-color:#EEBE47"/>
	</linearGradient>
	<path class="st7" d="M235.5,121.03c0,54.29-44,98.29-98.29,98.29c-54.28,0-98.29-44-98.29-98.29c0-54.29,44-98.29,98.29-98.29
		C191.5,22.74,235.5,66.75,235.5,121.03z"/>
	<linearGradient id="SVGID_8_" gradientUnits="userSpaceOnUse" x1="38.9258" y1="121.0338" x2="235.5042" y2="121.0338">
		<stop  offset="0" style="stop-color:#EEBE47"/>
		<stop  offset="0.1204" style="stop-color:#F8DB77"/>
		<stop  offset="0.2097" style="stop-color:#FFEE96"/>
		<stop  offset="0.4462" style="stop-color:#A2621E"/>
		<stop  offset="0.6667" style="stop-color:#EEA54C"/>
		<stop  offset="1" style="stop-color:#EEBE47"/>
	</linearGradient>
	<path class="st8" d="M235.5,121.03c0,54.29-44,98.29-98.29,98.29c-54.28,0-98.29-44-98.29-98.29c0-54.29,44-98.29,98.29-98.29
		C191.5,22.74,235.5,66.75,235.5,121.03z"/>
	<linearGradient id="SVGID_9_" gradientUnits="userSpaceOnUse" x1="137.215" y1="7.6979" x2="137.215" y2="206.5839">
		<stop  offset="0" style="stop-color:#26334F"/>
		<stop  offset="0.5753" style="stop-color:#151C2C"/>
		<stop  offset="1" style="stop-color:#111724"/>
	</linearGradient>
	<path class="st9" d="M233.54,121.03c0,53.2-43.13,96.33-96.33,96.33c-53.2,0-96.33-43.13-96.33-96.33
		c0-53.2,43.12-96.33,96.33-96.33C190.42,24.71,233.54,67.83,233.54,121.03z"/>
	<linearGradient id="SVGID_10_" gradientUnits="userSpaceOnUse" x1="47.5189" y1="121.0338" x2="226.908" y2="121.0338">
		<stop  offset="0" style="stop-color:#EEBE47"/>
		<stop  offset="0.1204" style="stop-color:#F8DB77"/>
		<stop  offset="0.2097" style="stop-color:#FFEE96"/>
		<stop  offset="0.4462" style="stop-color:#A2621E"/>
		<stop  offset="0.6667" style="stop-color:#EEA54C"/>
		<stop  offset="1" style="stop-color:#EEBE47"/>
	</linearGradient>
	<path class="st10" d="M137.21,32.8c48.65,0,88.23,39.58,88.23,88.23s-39.58,88.23-88.23,88.23c-48.65,0-88.23-39.58-88.23-88.23
		S88.56,32.8,137.21,32.8 M137.21,31.34c-49.54,0-89.69,40.16-89.69,89.69c0,49.54,40.16,89.69,89.69,89.69
		c49.54,0,89.69-40.16,89.69-89.69C226.91,71.5,186.75,31.34,137.21,31.34L137.21,31.34z"/>
	<g>
		<g>
			<g>
				<linearGradient id="SVGID_11_" gradientUnits="userSpaceOnUse" x1="82.3781" y1="73.9964" x2="82.3781" y2="159.9167">
					<stop  offset="0" style="stop-color:#EEBE47"/>
					<stop  offset="0.1204" style="stop-color:#F8DB77"/>
					<stop  offset="0.2097" style="stop-color:#FFEE96"/>
					<stop  offset="0.6237" style="stop-color:#A2621E"/>
					<stop  offset="0.8065" style="stop-color:#EEA54C"/>
					<stop  offset="1" style="stop-color:#EEBE47"/>
				</linearGradient>
				<path class="st11" d="M86.89,133.1c0,2.28,0.1,4.1,0.31,5.47c0.2,1.37,0.63,2.45,1.27,3.24c0.64,0.79,1.56,1.33,2.76,1.62
					c1.2,0.29,2.79,0.47,4.77,0.53v3.33H69.2v-3.33c1.93-0.06,3.49-0.25,4.69-0.57c1.2-0.32,2.13-0.84,2.8-1.58
					c0.67-0.73,1.11-1.75,1.31-3.07c0.2-1.31,0.31-2.99,0.31-5.04v-32.14c0-3.39-0.01-6.19-0.04-8.41
					c-0.03-2.22-0.13-3.68-0.31-4.38c-0.29-1.28-1.17-2.07-2.63-2.36c-1.46-0.29-3.65-0.44-6.57-0.44v-3.33
					c2.86-0.12,5.88-0.51,9.07-1.18c3.18-0.67,6.2-1.5,9.06-2.5V133.1z"/>
				<linearGradient id="SVGID_12_" gradientUnits="userSpaceOnUse" x1="124.2889" y1="73.9964" x2="124.2889" y2="159.9166">
					<stop  offset="0" style="stop-color:#EEBE47"/>
					<stop  offset="0.1204" style="stop-color:#F8DB77"/>
					<stop  offset="0.2097" style="stop-color:#FFEE96"/>
					<stop  offset="0.6237" style="stop-color:#A2621E"/>
					<stop  offset="0.8065" style="stop-color:#EEA54C"/>
					<stop  offset="1" style="stop-color:#EEBE47"/>
				</linearGradient>
				<path class="st12" d="M124.29,78.97c3.56,0,6.92,0.91,10.07,2.71c3.15,1.81,5.9,4.29,8.23,7.44c2.33,3.15,4.19,6.86,5.56,11.12
					c1.37,4.26,2.06,8.88,2.06,13.84c0,4.73-0.69,9.17-2.06,13.31c-1.37,4.15-3.23,7.75-5.56,10.82c-2.34,3.07-5.08,5.49-8.23,7.27
					c-3.15,1.78-6.51,2.67-10.07,2.67c-3.56,0-6.92-0.89-10.07-2.67c-3.15-1.78-5.9-4.21-8.23-7.27c-2.34-3.06-4.19-6.67-5.56-10.82
					c-1.37-4.15-2.06-8.58-2.06-13.31c0-4.96,0.69-9.58,2.06-13.84c1.37-4.26,3.23-7.97,5.56-11.12c2.34-3.15,5.08-5.63,8.23-7.44
					C117.37,79.88,120.73,78.97,124.29,78.97z M124.29,143.96c2.28,0,4.31-0.47,6.09-1.4c1.78-0.93,3.3-2.54,4.55-4.82
					c1.26-2.28,2.22-5.31,2.89-9.11c0.67-3.8,1.01-8.55,1.01-14.28c0-5.96-0.34-10.92-1.01-14.89c-0.67-3.97-1.62-7.17-2.85-9.59
					c-1.23-2.42-2.75-4.15-4.55-5.17c-1.81-1.02-3.85-1.53-6.13-1.53c-2.28,0-4.32,0.51-6.13,1.53c-1.81,1.02-3.33,2.75-4.56,5.17
					c-1.23,2.42-2.17,5.62-2.85,9.59c-0.67,3.97-1.01,8.93-1.01,14.89c0,5.72,0.33,10.48,1.01,14.28c0.67,3.8,1.62,6.83,2.85,9.11
					c1.23,2.28,2.75,3.88,4.56,4.82C119.97,143.49,122.01,143.96,124.29,143.96z"/>
				<linearGradient id="SVGID_13_" gradientUnits="userSpaceOnUse" x1="178.0656" y1="73.9964" x2="178.0656" y2="159.9166">
					<stop  offset="0" style="stop-color:#EEBE47"/>
					<stop  offset="0.1204" style="stop-color:#F8DB77"/>
					<stop  offset="0.2097" style="stop-color:#FFEE96"/>
					<stop  offset="0.6237" style="stop-color:#A2621E"/>
					<stop  offset="0.8065" style="stop-color:#EEA54C"/>
					<stop  offset="1" style="stop-color:#EEBE47"/>
				</linearGradient>
				<path class="st13" d="M178.06,78.97c3.56,0,6.92,0.91,10.07,2.71c3.15,1.81,5.9,4.29,8.23,7.44c2.33,3.15,4.19,6.86,5.56,11.12
					c1.37,4.26,2.06,8.88,2.06,13.84c0,4.73-0.69,9.17-2.06,13.31c-1.37,4.15-3.23,7.75-5.56,10.82c-2.34,3.07-5.08,5.49-8.23,7.27
					c-3.15,1.78-6.51,2.67-10.07,2.67c-3.56,0-6.92-0.89-10.07-2.67c-3.15-1.78-5.9-4.21-8.23-7.27c-2.34-3.06-4.19-6.67-5.56-10.82
					c-1.37-4.15-2.06-8.58-2.06-13.31c0-4.96,0.69-9.58,2.06-13.84c1.37-4.26,3.23-7.97,5.56-11.12c2.34-3.15,5.08-5.63,8.23-7.44
					C171.15,79.88,174.5,78.97,178.06,78.97z M178.06,143.96c2.28,0,4.31-0.47,6.09-1.4c1.78-0.93,3.3-2.54,4.55-4.82
					c1.26-2.28,2.22-5.31,2.89-9.11c0.67-3.8,1.01-8.55,1.01-14.28c0-5.96-0.34-10.92-1.01-14.89c-0.67-3.97-1.62-7.17-2.85-9.59
					c-1.23-2.42-2.74-4.15-4.55-5.17c-1.81-1.02-3.85-1.53-6.13-1.53c-2.28,0-4.32,0.51-6.13,1.53c-1.81,1.02-3.33,2.75-4.56,5.17
					c-1.23,2.42-2.17,5.62-2.85,9.59c-0.67,3.97-1.01,8.93-1.01,14.89c0,5.72,0.33,10.48,1.01,14.28c0.67,3.8,1.62,6.83,2.85,9.11
					c1.23,2.28,2.75,3.88,4.56,4.82C173.74,143.49,175.79,143.96,178.06,143.96z"/>
			</g>
			<g>
				<linearGradient id="SVGID_14_" gradientUnits="userSpaceOnUse" x1="82.3781" y1="73.9964" x2="82.3781" y2="159.9167">
					<stop  offset="0" style="stop-color:#EEBE47"/>
					<stop  offset="0.1204" style="stop-color:#F8DB77"/>
					<stop  offset="0.2097" style="stop-color:#FFEE96"/>
					<stop  offset="0.6237" style="stop-color:#A2621E"/>
					<stop  offset="0.8065" style="stop-color:#EEA54C"/>
					<stop  offset="1" style="stop-color:#EEBE47"/>
				</linearGradient>
				<path class="st14" d="M86.89,133.1c0,2.28,0.1,4.1,0.31,5.47c0.2,1.37,0.63,2.45,1.27,3.24c0.64,0.79,1.56,1.33,2.76,1.62
					c1.2,0.29,2.79,0.47,4.77,0.53v3.33H69.2v-3.33c1.93-0.06,3.49-0.25,4.69-0.57c1.2-0.32,2.13-0.84,2.8-1.58
					c0.67-0.73,1.11-1.75,1.31-3.07c0.2-1.31,0.31-2.99,0.31-5.04v-32.14c0-3.39-0.01-6.19-0.04-8.41
					c-0.03-2.22-0.13-3.68-0.31-4.38c-0.29-1.28-1.17-2.07-2.63-2.36c-1.46-0.29-3.65-0.44-6.57-0.44v-3.33
					c2.86-0.12,5.88-0.51,9.07-1.18c3.18-0.67,6.2-1.5,9.06-2.5V133.1z"/>
				<linearGradient id="SVGID_15_" gradientUnits="userSpaceOnUse" x1="124.2889" y1="73.9964" x2="124.2889" y2="159.9166">
					<stop  offset="0" style="stop-color:#EEBE47"/>
					<stop  offset="0.1204" style="stop-color:#F8DB77"/>
					<stop  offset="0.2097" style="stop-color:#FFEE96"/>
					<stop  offset="0.6237" style="stop-color:#A2621E"/>
					<stop  offset="0.8065" style="stop-color:#EEA54C"/>
					<stop  offset="1" style="stop-color:#EEBE47"/>
				</linearGradient>
				<path class="st15" d="M124.29,78.97c3.56,0,6.92,0.91,10.07,2.71c3.15,1.81,5.9,4.29,8.23,7.44c2.33,3.15,4.19,6.86,5.56,11.12
					c1.37,4.26,2.06,8.88,2.06,13.84c0,4.73-0.69,9.17-2.06,13.31c-1.37,4.15-3.23,7.75-5.56,10.82c-2.34,3.07-5.08,5.49-8.23,7.27
					c-3.15,1.78-6.51,2.67-10.07,2.67c-3.56,0-6.92-0.89-10.07-2.67c-3.15-1.78-5.9-4.21-8.23-7.27c-2.34-3.06-4.19-6.67-5.56-10.82
					c-1.37-4.15-2.06-8.58-2.06-13.31c0-4.96,0.69-9.58,2.06-13.84c1.37-4.26,3.23-7.97,5.56-11.12c2.34-3.15,5.08-5.63,8.23-7.44
					C117.37,79.88,120.73,78.97,124.29,78.97z M124.29,143.96c2.28,0,4.31-0.47,6.09-1.4c1.78-0.93,3.3-2.54,4.55-4.82
					c1.26-2.28,2.22-5.31,2.89-9.11c0.67-3.8,1.01-8.55,1.01-14.28c0-5.96-0.34-10.92-1.01-14.89c-0.67-3.97-1.62-7.17-2.85-9.59
					c-1.23-2.42-2.75-4.15-4.55-5.17c-1.81-1.02-3.85-1.53-6.13-1.53c-2.28,0-4.32,0.51-6.13,1.53c-1.81,1.02-3.33,2.75-4.56,5.17
					c-1.23,2.42-2.17,5.62-2.85,9.59c-0.67,3.97-1.01,8.93-1.01,14.89c0,5.72,0.33,10.48,1.01,14.28c0.67,3.8,1.62,6.83,2.85,9.11
					c1.23,2.28,2.75,3.88,4.56,4.82C119.97,143.49,122.01,143.96,124.29,143.96z"/>
				<linearGradient id="SVGID_16_" gradientUnits="userSpaceOnUse" x1="178.0656" y1="73.9964" x2="178.0656" y2="159.9166">
					<stop  offset="0" style="stop-color:#EEBE47"/>
					<stop  offset="0.1204" style="stop-color:#F8DB77"/>
					<stop  offset="0.2097" style="stop-color:#FFEE96"/>
					<stop  offset="0.6237" style="stop-color:#A2621E"/>
					<stop  offset="0.8065" style="stop-color:#EEA54C"/>
					<stop  offset="1" style="stop-color:#EEBE47"/>
				</linearGradient>
				<path class="st16" d="M178.06,78.97c3.56,0,6.92,0.91,10.07,2.71c3.15,1.81,5.9,4.29,8.23,7.44c2.33,3.15,4.19,6.86,5.56,11.12
					c1.37,4.26,2.06,8.88,2.06,13.84c0,4.73-0.69,9.17-2.06,13.31c-1.37,4.15-3.23,7.75-5.56,10.82c-2.34,3.07-5.08,5.49-8.23,7.27
					c-3.15,1.78-6.51,2.67-10.07,2.67c-3.56,0-6.92-0.89-10.07-2.67c-3.15-1.78-5.9-4.21-8.23-7.27c-2.34-3.06-4.19-6.67-5.56-10.82
					c-1.37-4.15-2.06-8.58-2.06-13.31c0-4.96,0.69-9.58,2.06-13.84c1.37-4.26,3.23-7.97,5.56-11.12c2.34-3.15,5.08-5.63,8.23-7.44
					C171.15,79.88,174.5,78.97,178.06,78.97z M178.06,143.96c2.28,0,4.31-0.47,6.09-1.4c1.78-0.93,3.3-2.54,4.55-4.82
					c1.26-2.28,2.22-5.31,2.89-9.11c0.67-3.8,1.01-8.55,1.01-14.28c0-5.96-0.34-10.92-1.01-14.89c-0.67-3.97-1.62-7.17-2.85-9.59
					c-1.23-2.42-2.74-4.15-4.55-5.17c-1.81-1.02-3.85-1.53-6.13-1.53c-2.28,0-4.32,0.51-6.13,1.53c-1.81,1.02-3.33,2.75-4.56,5.17
					c-1.23,2.42-2.17,5.62-2.85,9.59c-0.67,3.97-1.01,8.93-1.01,14.89c0,5.72,0.33,10.48,1.01,14.28c0.67,3.8,1.62,6.83,2.85,9.11
					c1.23,2.28,2.75,3.88,4.56,4.82C173.74,143.49,175.79,143.96,178.06,143.96z"/>
			</g>
			<g>
				<linearGradient id="SVGID_17_" gradientUnits="userSpaceOnUse" x1="82.3781" y1="73.9964" x2="82.3781" y2="159.9167">
					<stop  offset="0" style="stop-color:#EEBE47"/>
					<stop  offset="0.1204" style="stop-color:#F8DB77"/>
					<stop  offset="0.2097" style="stop-color:#FFEE96"/>
					<stop  offset="0.6237" style="stop-color:#A2621E"/>
					<stop  offset="0.8065" style="stop-color:#EEA54C"/>
					<stop  offset="1" style="stop-color:#EEBE47"/>
				</linearGradient>
				<path class="st17" d="M86.89,133.1c0,2.28,0.1,4.1,0.31,5.47c0.2,1.37,0.63,2.45,1.27,3.24c0.64,0.79,1.56,1.33,2.76,1.62
					c1.2,0.29,2.79,0.47,4.77,0.53v3.33H69.2v-3.33c1.93-0.06,3.49-0.25,4.69-0.57c1.2-0.32,2.13-0.84,2.8-1.58
					c0.67-0.73,1.11-1.75,1.31-3.07c0.2-1.31,0.31-2.99,0.31-5.04v-32.14c0-3.39-0.01-6.19-0.04-8.41
					c-0.03-2.22-0.13-3.68-0.31-4.38c-0.29-1.28-1.17-2.07-2.63-2.36c-1.46-0.29-3.65-0.44-6.57-0.44v-3.33
					c2.86-0.12,5.88-0.51,9.07-1.18c3.18-0.67,6.2-1.5,9.06-2.5V133.1z"/>
				<linearGradient id="SVGID_18_" gradientUnits="userSpaceOnUse" x1="124.2889" y1="73.9964" x2="124.2889" y2="159.9166">
					<stop  offset="0" style="stop-color:#EEBE47"/>
					<stop  offset="0.1204" style="stop-color:#F8DB77"/>
					<stop  offset="0.2097" style="stop-color:#FFEE96"/>
					<stop  offset="0.6237" style="stop-color:#A2621E"/>
					<stop  offset="0.8065" style="stop-color:#EEA54C"/>
					<stop  offset="1" style="stop-color:#EEBE47"/>
				</linearGradient>
				<path class="st18" d="M124.29,78.97c3.56,0,6.92,0.91,10.07,2.71c3.15,1.81,5.9,4.29,8.23,7.44c2.33,3.15,4.19,6.86,5.56,11.12
					c1.37,4.26,2.06,8.88,2.06,13.84c0,4.73-0.69,9.17-2.06,13.31c-1.37,4.15-3.23,7.75-5.56,10.82c-2.34,3.07-5.08,5.49-8.23,7.27
					c-3.15,1.78-6.51,2.67-10.07,2.67c-3.56,0-6.92-0.89-10.07-2.67c-3.15-1.78-5.9-4.21-8.23-7.27c-2.34-3.06-4.19-6.67-5.56-10.82
					c-1.37-4.15-2.06-8.58-2.06-13.31c0-4.96,0.69-9.58,2.06-13.84c1.37-4.26,3.23-7.97,5.56-11.12c2.34-3.15,5.08-5.63,8.23-7.44
					C117.37,79.88,120.73,78.97,124.29,78.97z M124.29,143.96c2.28,0,4.31-0.47,6.09-1.4c1.78-0.93,3.3-2.54,4.55-4.82
					c1.26-2.28,2.22-5.31,2.89-9.11c0.67-3.8,1.01-8.55,1.01-14.28c0-5.96-0.34-10.92-1.01-14.89c-0.67-3.97-1.62-7.17-2.85-9.59
					c-1.23-2.42-2.75-4.15-4.55-5.17c-1.81-1.02-3.85-1.53-6.13-1.53c-2.28,0-4.32,0.51-6.13,1.53c-1.81,1.02-3.33,2.75-4.56,5.17
					c-1.23,2.42-2.17,5.62-2.85,9.59c-0.67,3.97-1.01,8.93-1.01,14.89c0,5.72,0.33,10.48,1.01,14.28c0.67,3.8,1.62,6.83,2.85,9.11
					c1.23,2.28,2.75,3.88,4.56,4.82C119.97,143.49,122.01,143.96,124.29,143.96z"/>
				<linearGradient id="SVGID_19_" gradientUnits="userSpaceOnUse" x1="178.0656" y1="73.9964" x2="178.0656" y2="159.9166">
					<stop  offset="0" style="stop-color:#EEBE47"/>
					<stop  offset="0.1204" style="stop-color:#F8DB77"/>
					<stop  offset="0.2097" style="stop-color:#FFEE96"/>
					<stop  offset="0.6237" style="stop-color:#A2621E"/>
					<stop  offset="0.8065" style="stop-color:#EEA54C"/>
					<stop  offset="1" style="stop-color:#EEBE47"/>
				</linearGradient>
				<path class="st19" d="M178.06,78.97c3.56,0,6.92,0.91,10.07,2.71c3.15,1.81,5.9,4.29,8.23,7.44c2.33,3.15,4.19,6.86,5.56,11.12
					c1.37,4.26,2.06,8.88,2.06,13.84c0,4.73-0.69,9.17-2.06,13.31c-1.37,4.15-3.23,7.75-5.56,10.82c-2.34,3.07-5.08,5.49-8.23,7.27
					c-3.15,1.78-6.51,2.67-10.07,2.67c-3.56,0-6.92-0.89-10.07-2.67c-3.15-1.78-5.9-4.21-8.23-7.27c-2.34-3.06-4.19-6.67-5.56-10.82
					c-1.37-4.15-2.06-8.58-2.06-13.31c0-4.96,0.69-9.58,2.06-13.84c1.37-4.26,3.23-7.97,5.56-11.12c2.34-3.15,5.08-5.63,8.23-7.44
					C171.15,79.88,174.5,78.97,178.06,78.97z M178.06,143.96c2.28,0,4.31-0.47,6.09-1.4c1.78-0.93,3.3-2.54,4.55-4.82
					c1.26-2.28,2.22-5.31,2.89-9.11c0.67-3.8,1.01-8.55,1.01-14.28c0-5.96-0.34-10.92-1.01-14.89c-0.67-3.97-1.62-7.17-2.85-9.59
					c-1.23-2.42-2.74-4.15-4.55-5.17c-1.81-1.02-3.85-1.53-6.13-1.53c-2.28,0-4.32,0.51-6.13,1.53c-1.81,1.02-3.33,2.75-4.56,5.17
					c-1.23,2.42-2.17,5.62-2.85,9.59c-0.67,3.97-1.01,8.93-1.01,14.89c0,5.72,0.33,10.48,1.01,14.28c0.67,3.8,1.62,6.83,2.85,9.11
					c1.23,2.28,2.75,3.88,4.56,4.82C173.74,143.49,175.79,143.96,178.06,143.96z"/>
			</g>
		</g>
		<g>
			<g>
				<linearGradient id="SVGID_20_" gradientUnits="userSpaceOnUse" x1="195.9004" y1="73.9964" x2="195.9004" y2="159.9175">
					<stop  offset="0" style="stop-color:#EEBE47"/>
					<stop  offset="0.1204" style="stop-color:#F8DB77"/>
					<stop  offset="0.2097" style="stop-color:#FFEE96"/>
					<stop  offset="0.6237" style="stop-color:#A2621E"/>
					<stop  offset="0.8065" style="stop-color:#EEA54C"/>
					<stop  offset="1" style="stop-color:#EEBE47"/>
				</linearGradient>
				<path class="st20" d="M192.46,74.18V73.4c0.74-0.43,1.32-0.86,1.73-1.3c0.42-0.43,0.74-0.95,0.96-1.55h0.6v2.63h2.8v0.98h-2.8
					v6.35c0,0.49,0.02,0.9,0.07,1.23c0.05,0.33,0.13,0.6,0.24,0.8c0.11,0.2,0.26,0.35,0.44,0.43c0.18,0.08,0.41,0.13,0.69,0.13
					c0.35,0,0.64-0.07,0.89-0.22c0.24-0.15,0.48-0.39,0.72-0.74l0.52,0.4c-0.2,0.51-0.53,0.91-1.01,1.18
					c-0.48,0.27-1.08,0.41-1.79,0.41c-0.92,0-1.62-0.22-2.1-0.66c-0.48-0.44-0.72-1.07-0.72-1.89v-7.42H192.46z"/>
				<linearGradient id="SVGID_21_" gradientUnits="userSpaceOnUse" x1="206.7038" y1="73.9964" x2="206.7038" y2="159.9166">
					<stop  offset="0" style="stop-color:#EEBE47"/>
					<stop  offset="0.1204" style="stop-color:#F8DB77"/>
					<stop  offset="0.2097" style="stop-color:#FFEE96"/>
					<stop  offset="0.6237" style="stop-color:#A2621E"/>
					<stop  offset="0.8065" style="stop-color:#EEA54C"/>
					<stop  offset="1" style="stop-color:#EEBE47"/>
				</linearGradient>
				<path class="st21" d="M203.87,80.61c0,0.57,0.01,1.02,0.04,1.36c0.03,0.33,0.1,0.59,0.22,0.76c0.12,0.18,0.29,0.29,0.51,0.35
					c0.22,0.06,0.54,0.1,0.94,0.13v0.73h-5.56V83.2c0.4-0.03,0.73-0.07,0.96-0.13c0.24-0.06,0.42-0.17,0.54-0.33
					c0.13-0.17,0.21-0.41,0.24-0.72c0.03-0.31,0.05-0.73,0.05-1.26V72c0-0.82-0.01-1.48-0.03-1.97c-0.02-0.49-0.06-0.86-0.11-1.11
					c-0.03-0.17-0.07-0.3-0.14-0.41c-0.06-0.1-0.16-0.19-0.28-0.25c-0.13-0.06-0.29-0.11-0.5-0.14c-0.21-0.03-0.47-0.04-0.77-0.04
					v-0.71l3.84-0.79v7.96h0.08c0.21-0.28,0.47-0.53,0.78-0.76c0.31-0.23,0.65-0.43,1.01-0.6c0.36-0.17,0.74-0.3,1.14-0.4
					c0.4-0.1,0.78-0.15,1.16-0.15c0.64,0,1.23,0.11,1.77,0.33c0.54,0.22,0.95,0.52,1.24,0.9c0.24,0.32,0.41,0.74,0.52,1.26
					c0.11,0.52,0.17,1.23,0.17,2.12v3.34c0,0.57,0.02,1.02,0.04,1.35c0.03,0.33,0.1,0.58,0.22,0.76c0.12,0.18,0.29,0.3,0.51,0.36
					c0.22,0.06,0.53,0.1,0.94,0.13v0.73h-5.54V83.2c0.39-0.01,0.7-0.05,0.94-0.11c0.24-0.06,0.42-0.18,0.53-0.35
					c0.12-0.17,0.2-0.41,0.23-0.72c0.03-0.31,0.05-0.73,0.05-1.26v-2.63c0-1.56-0.18-2.67-0.54-3.33c-0.36-0.66-0.97-0.99-1.82-0.99
					c-0.65,0-1.25,0.17-1.79,0.5c-0.54,0.33-0.96,0.8-1.26,1.38c-0.07,0.16-0.13,0.3-0.18,0.43c-0.05,0.13-0.09,0.28-0.11,0.45
					c-0.03,0.17-0.05,0.36-0.05,0.58c-0.01,0.22-0.01,0.48-0.01,0.8V80.61z"/>
			</g>
			<g>
				<linearGradient id="SVGID_22_" gradientUnits="userSpaceOnUse" x1="195.9004" y1="73.9964" x2="195.9004" y2="159.9175">
					<stop  offset="0" style="stop-color:#EEBE47"/>
					<stop  offset="0.1204" style="stop-color:#F8DB77"/>
					<stop  offset="0.2097" style="stop-color:#FFEE96"/>
					<stop  offset="0.6237" style="stop-color:#A2621E"/>
					<stop  offset="0.8065" style="stop-color:#EEA54C"/>
					<stop  offset="1" style="stop-color:#EEBE47"/>
				</linearGradient>
				<path class="st22" d="M192.46,74.18V73.4c0.74-0.43,1.32-0.86,1.73-1.3c0.42-0.43,0.74-0.95,0.96-1.55h0.6v2.63h2.8v0.98h-2.8
					v6.35c0,0.49,0.02,0.9,0.07,1.23c0.05,0.33,0.13,0.6,0.24,0.8c0.11,0.2,0.26,0.35,0.44,0.43c0.18,0.08,0.41,0.13,0.69,0.13
					c0.35,0,0.64-0.07,0.89-0.22c0.24-0.15,0.48-0.39,0.72-0.74l0.52,0.4c-0.2,0.51-0.53,0.91-1.01,1.18
					c-0.48,0.27-1.08,0.41-1.79,0.41c-0.92,0-1.62-0.22-2.1-0.66c-0.48-0.44-0.72-1.07-0.72-1.89v-7.42H192.46z"/>
				<linearGradient id="SVGID_23_" gradientUnits="userSpaceOnUse" x1="206.7038" y1="73.9964" x2="206.7038" y2="159.9166">
					<stop  offset="0" style="stop-color:#EEBE47"/>
					<stop  offset="0.1204" style="stop-color:#F8DB77"/>
					<stop  offset="0.2097" style="stop-color:#FFEE96"/>
					<stop  offset="0.6237" style="stop-color:#A2621E"/>
					<stop  offset="0.8065" style="stop-color:#EEA54C"/>
					<stop  offset="1" style="stop-color:#EEBE47"/>
				</linearGradient>
				<path class="st23" d="M203.87,80.61c0,0.57,0.01,1.02,0.04,1.36c0.03,0.33,0.1,0.59,0.22,0.76c0.12,0.18,0.29,0.29,0.51,0.35
					c0.22,0.06,0.54,0.1,0.94,0.13v0.73h-5.56V83.2c0.4-0.03,0.73-0.07,0.96-0.13c0.24-0.06,0.42-0.17,0.54-0.33
					c0.13-0.17,0.21-0.41,0.24-0.72c0.03-0.31,0.05-0.73,0.05-1.26V72c0-0.82-0.01-1.48-0.03-1.97c-0.02-0.49-0.06-0.86-0.11-1.11
					c-0.03-0.17-0.07-0.3-0.14-0.41c-0.06-0.1-0.16-0.19-0.28-0.25c-0.13-0.06-0.29-0.11-0.5-0.14c-0.21-0.03-0.47-0.04-0.77-0.04
					v-0.71l3.84-0.79v7.96h0.08c0.21-0.28,0.47-0.53,0.78-0.76c0.31-0.23,0.65-0.43,1.01-0.6c0.36-0.17,0.74-0.3,1.14-0.4
					c0.4-0.1,0.78-0.15,1.16-0.15c0.64,0,1.23,0.11,1.77,0.33c0.54,0.22,0.95,0.52,1.24,0.9c0.24,0.32,0.41,0.74,0.52,1.26
					c0.11,0.52,0.17,1.23,0.17,2.12v3.34c0,0.57,0.02,1.02,0.04,1.35c0.03,0.33,0.1,0.58,0.22,0.76c0.12,0.18,0.29,0.3,0.51,0.36
					c0.22,0.06,0.53,0.1,0.94,0.13v0.73h-5.54V83.2c0.39-0.01,0.7-0.05,0.94-0.11c0.24-0.06,0.42-0.18,0.53-0.35
					c0.12-0.17,0.2-0.41,0.23-0.72c0.03-0.31,0.05-0.73,0.05-1.26v-2.63c0-1.56-0.18-2.67-0.54-3.33c-0.36-0.66-0.97-0.99-1.82-0.99
					c-0.65,0-1.25,0.17-1.79,0.5c-0.54,0.33-0.96,0.8-1.26,1.38c-0.07,0.16-0.13,0.3-0.18,0.43c-0.05,0.13-0.09,0.28-0.11,0.45
					c-0.03,0.17-0.05,0.36-0.05,0.58c-0.01,0.22-0.01,0.48-0.01,0.8V80.61z"/>
			</g>
			<g>
				<linearGradient id="SVGID_24_" gradientUnits="userSpaceOnUse" x1="195.9004" y1="73.9964" x2="195.9004" y2="159.9175">
					<stop  offset="0" style="stop-color:#EEBE47"/>
					<stop  offset="0.1204" style="stop-color:#F8DB77"/>
					<stop  offset="0.2097" style="stop-color:#FFEE96"/>
					<stop  offset="0.6237" style="stop-color:#A2621E"/>
					<stop  offset="0.8065" style="stop-color:#EEA54C"/>
					<stop  offset="1" style="stop-color:#EEBE47"/>
				</linearGradient>
				<path class="st24" d="M192.46,74.18V73.4c0.74-0.43,1.32-0.86,1.73-1.3c0.42-0.43,0.74-0.95,0.96-1.55h0.6v2.63h2.8v0.98h-2.8
					v6.35c0,0.49,0.02,0.9,0.07,1.23c0.05,0.33,0.13,0.6,0.24,0.8c0.11,0.2,0.26,0.35,0.44,0.43c0.18,0.08,0.41,0.13,0.69,0.13
					c0.35,0,0.64-0.07,0.89-0.22c0.24-0.15,0.48-0.39,0.72-0.74l0.52,0.4c-0.2,0.51-0.53,0.91-1.01,1.18
					c-0.48,0.27-1.08,0.41-1.79,0.41c-0.92,0-1.62-0.22-2.1-0.66c-0.48-0.44-0.72-1.07-0.72-1.89v-7.42H192.46z"/>
				<linearGradient id="SVGID_25_" gradientUnits="userSpaceOnUse" x1="206.7038" y1="73.9964" x2="206.7038" y2="159.9166">
					<stop  offset="0" style="stop-color:#EEBE47"/>
					<stop  offset="0.1204" style="stop-color:#F8DB77"/>
					<stop  offset="0.2097" style="stop-color:#FFEE96"/>
					<stop  offset="0.6237" style="stop-color:#A2621E"/>
					<stop  offset="0.8065" style="stop-color:#EEA54C"/>
					<stop  offset="1" style="stop-color:#EEBE47"/>
				</linearGradient>
				<path class="st25" d="M203.87,80.61c0,0.57,0.01,1.02,0.04,1.36c0.03,0.33,0.1,0.59,0.22,0.76c0.12,0.18,0.29,0.29,0.51,0.35
					c0.22,0.06,0.54,0.1,0.94,0.13v0.73h-5.56V83.2c0.4-0.03,0.73-0.07,0.96-0.13c0.24-0.06,0.42-0.17,0.54-0.33
					c0.13-0.17,0.21-0.41,0.24-0.72c0.03-0.31,0.05-0.73,0.05-1.26V72c0-0.82-0.01-1.48-0.03-1.97c-0.02-0.49-0.06-0.86-0.11-1.11
					c-0.03-0.17-0.07-0.3-0.14-0.41c-0.06-0.1-0.16-0.19-0.28-0.25c-0.13-0.06-0.29-0.11-0.5-0.14c-0.21-0.03-0.47-0.04-0.77-0.04
					v-0.71l3.84-0.79v7.96h0.08c0.21-0.28,0.47-0.53,0.78-0.76c0.31-0.23,0.65-0.43,1.01-0.6c0.36-0.17,0.74-0.3,1.14-0.4
					c0.4-0.1,0.78-0.15,1.16-0.15c0.64,0,1.23,0.11,1.77,0.33c0.54,0.22,0.95,0.52,1.24,0.9c0.24,0.32,0.41,0.74,0.52,1.26
					c0.11,0.52,0.17,1.23,0.17,2.12v3.34c0,0.57,0.02,1.02,0.04,1.35c0.03,0.33,0.1,0.58,0.22,0.76c0.12,0.18,0.29,0.3,0.51,0.36
					c0.22,0.06,0.53,0.1,0.94,0.13v0.73h-5.54V83.2c0.39-0.01,0.7-0.05,0.94-0.11c0.24-0.06,0.42-0.18,0.53-0.35
					c0.12-0.17,0.2-0.41,0.23-0.72c0.03-0.31,0.05-0.73,0.05-1.26v-2.63c0-1.56-0.18-2.67-0.54-3.33c-0.36-0.66-0.97-0.99-1.82-0.99
					c-0.65,0-1.25,0.17-1.79,0.5c-0.54,0.33-0.96,0.8-1.26,1.38c-0.07,0.16-0.13,0.3-0.18,0.43c-0.05,0.13-0.09,0.28-0.11,0.45
					c-0.03,0.17-0.05,0.36-0.05,0.58c-0.01,0.22-0.01,0.48-0.01,0.8V80.61z"/>
			</g>
		</g>
	</g>
	<linearGradient id="SVGID_26_" gradientUnits="userSpaceOnUse" x1="60.0012" y1="188.1658" x2="262.7573" y2="188.1658">
		<stop  offset="0" style="stop-color:#EEBE47"/>
		<stop  offset="0.1204" style="stop-color:#F8DB77"/>
		<stop  offset="0.2097" style="stop-color:#FFEE96"/>
		<stop  offset="0.4462" style="stop-color:#A2621E"/>
		<stop  offset="0.6667" style="stop-color:#EEA54C"/>
		<stop  offset="1" style="stop-color:#EEBE47"/>
	</linearGradient>
	<path class="st26" d="M225.79,215.19c-50.38-34.07-122.63-34.31-179.18,0c-5.21-10.09-7.81-15.13-13.03-25.22
		c62.92-38.61,150.83-38.29,205.24,0C233.61,200.06,231,205.11,225.79,215.19z"/>
	<linearGradient id="SVGID_27_" gradientUnits="userSpaceOnUse" x1="235.7872" y1="175.6106" x2="-140.828" y2="178.5304">
		<stop  offset="0" style="stop-color:#EEBE47"/>
		<stop  offset="0.1204" style="stop-color:#F8DB77"/>
		<stop  offset="0.2097" style="stop-color:#FFEE96"/>
		<stop  offset="0.4462" style="stop-color:#A2621E"/>
		<stop  offset="0.6667" style="stop-color:#EEA54C"/>
		<stop  offset="1" style="stop-color:#EEBE47"/>
	</linearGradient>
	<path class="st27" d="M238.38,190.82c0.15-0.28,0.29-0.55,0.44-0.84c-54.4-38.29-142.31-38.61-205.24,0
		c0.15,0.3,0.3,0.58,0.45,0.87C96.76,152.61,184.07,152.92,238.38,190.82z"/>
	<g>
		<g>
			<path class="st28" d="M65.27,191.52c-1.81,0.77-2.72,1.16-4.51,1.98c0,0.53,0,0.98,0.02,1.38c0.01,0.4,0.03,0.74,0.06,1.02
				c0.02,0.28,0.06,0.52,0.1,0.7c0.04,0.18,0.09,0.33,0.13,0.43c0.13,0.3,0.32,0.46,0.56,0.48c0.25,0.02,0.61-0.07,1.07-0.28
				c0.11,0.24,0.15,0.36,0.26,0.61c-1.59,0.72-2.39,1.09-3.97,1.86c-0.11-0.24-0.16-0.36-0.27-0.6c0.24-0.15,0.43-0.3,0.58-0.43
				c0.16-0.14,0.28-0.29,0.38-0.45c0.09-0.16,0.16-0.34,0.19-0.54c0.04-0.2,0.06-0.44,0.06-0.71c-0.07-2.48-0.09-4.34-0.1-6.2
				c-0.01-1.87-0.01-3.73,0.03-6.23c0.3-0.13,0.46-0.2,0.76-0.33c1.55,1.47,2.7,2.59,3.84,3.72c1.14,1.13,2.26,2.26,3.75,3.78
				c0.5,0.5,0.91,0.9,1.24,1.18c0.33,0.29,0.62,0.49,0.87,0.6c0.25,0.11,0.48,0.16,0.71,0.13c0.23-0.03,0.49-0.1,0.78-0.21
				c0.09,0.26,0.14,0.38,0.23,0.64c-2.18,0.85-3.26,1.28-5.42,2.2c-0.1-0.25-0.15-0.37-0.25-0.63c0.59-0.25,0.97-0.48,1.15-0.68
				c0.18-0.2,0.22-0.43,0.12-0.68c-0.04-0.11-0.09-0.2-0.13-0.29c-0.05-0.09-0.1-0.18-0.18-0.28c-0.07-0.1-0.16-0.2-0.27-0.31
				c-0.1-0.12-0.23-0.25-0.38-0.4C66.1,192.39,65.83,192.11,65.27,191.52z M60.74,192.54c1.54-0.7,2.32-1.03,3.87-1.69
				c-1.53-1.59-2.31-2.38-3.87-3.94C60.72,189.17,60.72,190.29,60.74,192.54z"/>
			<path class="st28" d="M85.24,189.66c-2.22-1.61-3.94-2.79-5.67-3.95c-1.73-1.16-3.48-2.3-5.87-3.77
				c-0.03,0.01-0.05,0.01-0.07,0.02c0.96,2.83,1.44,4.24,2.4,7.06c0.19,0.55,0.35,0.99,0.5,1.29c0.15,0.31,0.31,0.52,0.49,0.66
				c0.18,0.14,0.39,0.2,0.63,0.17c0.24-0.02,0.54-0.09,0.91-0.2c0.08,0.25,0.13,0.38,0.21,0.63c-1.82,0.62-2.72,0.95-4.52,1.63
				c-0.09-0.25-0.14-0.38-0.22-0.63c0.39-0.16,0.7-0.31,0.92-0.46c0.22-0.15,0.36-0.33,0.44-0.54c0.08-0.21,0.09-0.48,0.03-0.8
				c-0.06-0.32-0.18-0.74-0.36-1.26c-0.93-2.68-1.39-4.03-2.32-6.71c-0.16-0.46-0.31-0.84-0.46-1.13c-0.15-0.29-0.31-0.49-0.5-0.62
				c-0.19-0.13-0.42-0.18-0.68-0.17c-0.26,0.02-0.59,0.08-0.98,0.2c-0.09-0.25-0.13-0.37-0.22-0.62c1.42-0.53,2.14-0.79,3.56-1.29
				c2.22,1.38,3.86,2.44,5.47,3.52c1.61,1.08,3.21,2.17,5.29,3.67c0.03-0.01,0.04-0.01,0.07-0.02c-0.77-2.65-1.15-3.97-1.92-6.62
				c-0.16-0.55-0.31-0.98-0.44-1.3s-0.29-0.55-0.47-0.69c-0.18-0.14-0.4-0.2-0.65-0.19c-0.25,0.02-0.57,0.08-0.96,0.19
				c-0.08-0.26-0.12-0.38-0.19-0.64c1.96-0.61,2.94-0.91,4.91-1.47c0.07,0.26,0.11,0.38,0.18,0.64c-0.42,0.13-0.76,0.27-1,0.4
				c-0.24,0.14-0.41,0.32-0.51,0.53c-0.1,0.21-0.12,0.48-0.08,0.81s0.13,0.75,0.28,1.27c0.57,2.01,1,3.52,1.42,5.03
				c0.43,1.51,0.86,3.02,1.43,5.03C85.85,189.47,85.65,189.53,85.24,189.66z"/>
			<path class="st28" d="M102.43,185.35c-2.05-1.83-3.63-3.17-5.24-4.49c-1.61-1.33-3.24-2.64-5.47-4.34
				c-0.03,0.01-0.04,0.01-0.07,0.02c0.69,2.91,1.03,4.36,1.72,7.27c0.13,0.57,0.26,1.01,0.38,1.33c0.12,0.32,0.26,0.55,0.42,0.71
				c0.16,0.15,0.36,0.23,0.6,0.24c0.24,0,0.54-0.04,0.91-0.11c0.06,0.26,0.09,0.39,0.15,0.65c-1.85,0.44-2.78,0.67-4.62,1.16
				c-0.07-0.26-0.1-0.39-0.17-0.65c0.4-0.12,0.71-0.24,0.94-0.36s0.4-0.3,0.49-0.5c0.1-0.21,0.13-0.47,0.1-0.79
				c-0.03-0.33-0.11-0.75-0.24-1.28c-0.67-2.76-1-4.14-1.67-6.9c-0.11-0.47-0.24-0.87-0.36-1.17c-0.12-0.3-0.26-0.53-0.44-0.68
				c-0.17-0.15-0.39-0.22-0.65-0.24c-0.26-0.01-0.59,0.02-0.99,0.11c-0.07-0.26-0.1-0.39-0.16-0.65c1.45-0.38,2.18-0.57,3.64-0.92
				c2.07,1.59,3.59,2.82,5.09,4.05c1.5,1.24,2.98,2.48,4.91,4.18c0.03-0.01,0.04-0.01,0.07-0.02c-0.51-2.71-0.77-4.06-1.29-6.77
				c-0.11-0.56-0.22-1.01-0.32-1.34c-0.11-0.33-0.24-0.57-0.4-0.73c-0.17-0.16-0.37-0.24-0.62-0.25c-0.25-0.01-0.57,0.03-0.97,0.1
				c-0.05-0.26-0.08-0.39-0.13-0.65c1.99-0.42,2.99-0.61,4.99-0.98c0.05,0.26,0.07,0.4,0.11,0.66c-0.43,0.09-0.78,0.19-1.03,0.3
				c-0.25,0.11-0.44,0.27-0.55,0.47c-0.11,0.2-0.17,0.47-0.16,0.8c0.01,0.33,0.06,0.76,0.16,1.28c0.38,2.06,0.66,3.6,0.95,5.14
				c0.29,1.54,0.57,3.09,0.95,5.15C103.05,185.23,102.84,185.27,102.43,185.35z"/>
			<path class="st28" d="M111.82,180.21c0.08,0.58,0.16,1.04,0.26,1.37c0.09,0.33,0.22,0.57,0.38,0.74
				c0.16,0.17,0.37,0.27,0.63,0.29c0.26,0.02,0.59,0.01,1-0.03c0.03,0.26,0.05,0.4,0.09,0.66c-2.26,0.3-3.39,0.46-5.65,0.83
				c-0.04-0.26-0.07-0.4-0.11-0.66c0.41-0.08,0.74-0.17,0.98-0.27c0.24-0.1,0.42-0.26,0.53-0.45c0.12-0.2,0.17-0.45,0.17-0.77
				c0-0.33-0.04-0.76-0.12-1.3c-0.41-2.81-0.61-4.22-1.02-7.03c-0.07-0.48-0.15-0.88-0.24-1.19c-0.09-0.31-0.21-0.55-0.37-0.71
				c-0.16-0.16-0.37-0.27-0.63-0.31c-0.26-0.04-0.58-0.03-0.99,0.01c-0.04-0.26-0.07-0.4-0.11-0.66c2.27-0.37,3.41-0.54,5.68-0.84
				c0.03,0.26,0.05,0.4,0.09,0.66c-0.4,0.06-0.71,0.15-0.94,0.27c-0.23,0.11-0.4,0.27-0.51,0.49c-0.1,0.21-0.15,0.49-0.15,0.83
				c0,0.34,0.04,0.78,0.11,1.3C111.27,176.14,111.45,177.5,111.82,180.21z"/>
			<path class="st28" d="M123.95,179.53c0.52-1.56,0.92-2.74,1.32-3.91c0.41-1.17,0.82-2.34,1.38-3.89
				c0.16-0.44,0.27-0.79,0.33-1.04c0.06-0.25,0.09-0.47,0.08-0.67c-0.02-0.31-0.14-0.53-0.35-0.65c-0.21-0.12-0.6-0.16-1.16-0.12
				c-0.02-0.27-0.02-0.4-0.04-0.67c1.83-0.11,2.74-0.16,4.57-0.23c0.01,0.27,0.02,0.4,0.02,0.66c-0.29,0.05-0.53,0.11-0.73,0.17
				c-0.2,0.07-0.38,0.16-0.53,0.27c-0.15,0.11-0.28,0.25-0.39,0.43c-0.11,0.17-0.22,0.38-0.32,0.63c-0.9,2.36-1.54,4.14-2.17,5.92
				c-0.63,1.78-1.25,3.56-2.03,5.94c-0.24,0.02-0.37,0.03-0.61,0.05c-1.07-2.1-1.89-3.67-2.73-5.24c-0.84-1.57-1.7-3.13-2.87-5.2
				c-0.2-0.33-0.38-0.62-0.57-0.86c-0.18-0.24-0.37-0.43-0.58-0.57c-0.2-0.14-0.43-0.24-0.67-0.29c-0.25-0.05-0.53-0.08-0.86-0.06
				c-0.03-0.27-0.05-0.41-0.08-0.68c2.44-0.29,3.67-0.41,6.11-0.62c0.02,0.27,0.03,0.4,0.06,0.68c-0.35,0.03-0.63,0.07-0.85,0.12
				c-0.22,0.05-0.38,0.11-0.5,0.19c-0.12,0.08-0.2,0.16-0.24,0.26c-0.04,0.1-0.06,0.21-0.05,0.32c0.01,0.16,0.06,0.35,0.14,0.56
				c0.08,0.21,0.23,0.5,0.44,0.9c0.8,1.51,1.38,2.65,1.96,3.79C122.63,176.87,123.21,178.01,123.95,179.53z"/>
			<path class="st28" d="M136.74,174.29c0.66,0,1.21-0.04,1.65-0.11c0.44-0.07,0.8-0.19,1.07-0.35c0.26-0.16,0.46-0.37,0.57-0.63
				c0.12-0.26,0.18-0.56,0.18-0.91c0.26,0,0.39,0.01,0.65,0.01c-0.03,1.91-0.04,2.86-0.07,4.78c-0.25,0-0.38,0-0.63-0.01
				c0-0.35-0.04-0.66-0.14-0.91c-0.1-0.26-0.28-0.47-0.54-0.64c-0.26-0.17-0.61-0.31-1.05-0.4c-0.44-0.09-1-0.13-1.68-0.13
				c0.01,1.58,0.01,2.38,0.02,3.96c0,0.39,0.06,0.7,0.15,0.95c0.1,0.25,0.26,0.45,0.49,0.61c0.23,0.16,0.53,0.27,0.91,0.33
				c0.38,0.07,0.84,0.1,1.39,0.11c0.62,0.01,1.15-0.03,1.59-0.11c0.44-0.08,0.81-0.22,1.11-0.42c0.3-0.2,0.54-0.48,0.73-0.82
				c0.19-0.34,0.35-0.76,0.48-1.27c0.27,0.01,0.41,0.02,0.68,0.02c-0.16,1.37-0.23,2.06-0.38,3.44c-2.18-0.07-3.82-0.1-5.45-0.11
				c-1.64-0.01-3.27,0-5.45,0.06c-0.01-0.27-0.01-0.4-0.01-0.67c0.41-0.02,0.74-0.06,0.99-0.12c0.25-0.06,0.45-0.17,0.59-0.31
				c0.14-0.14,0.23-0.34,0.27-0.6c0.04-0.26,0.06-0.59,0.05-1c-0.02-1.63-0.04-2.86-0.06-4.08s-0.04-2.45-0.06-4.08
				c-0.01-0.41-0.04-0.74-0.09-0.99c-0.05-0.25-0.13-0.45-0.27-0.59c-0.13-0.14-0.32-0.24-0.57-0.29c-0.25-0.05-0.58-0.08-0.98-0.09
				c-0.01-0.27-0.01-0.4-0.02-0.67c2.17-0.05,3.8-0.06,5.43-0.06c1.63,0,3.27,0.02,5.44,0.09c0.03,1.24,0.05,1.85,0.08,3.09
				c-0.26-0.01-0.39-0.01-0.65-0.02c-0.06-0.47-0.17-0.85-0.33-1.16c-0.16-0.3-0.38-0.55-0.67-0.73c-0.29-0.18-0.66-0.31-1.11-0.39
				c-0.45-0.08-0.99-0.12-1.63-0.13c-0.95-0.01-1.43-0.01-2.38,0c-0.21,0-0.32,0.1-0.32,0.3
				C136.73,171.28,136.73,172.28,136.74,174.29z"/>
			<path class="st28" d="M159.35,172.83c-0.1,0.93-0.48,1.66-1.13,2.21c-0.65,0.55-1.62,0.87-2.9,0.95
				c1.43,2.01,2.13,3.01,3.49,5.05c0.27,0.42,0.59,0.74,0.95,0.95c0.36,0.21,0.8,0.39,1.32,0.54c-0.03,0.26-0.05,0.4-0.08,0.66
				c-1.35-0.18-2.02-0.26-3.37-0.41c-1.48-2.38-2.25-3.56-3.83-5.9c-0.14-0.21-0.27-0.38-0.4-0.51c-0.13-0.13-0.27-0.23-0.41-0.31
				c-0.15-0.08-0.32-0.13-0.52-0.17s-0.44-0.06-0.71-0.08c-0.11,1.45-0.16,2.18-0.26,3.64c-0.03,0.43-0.03,0.78,0,1.06
				c0.03,0.28,0.13,0.5,0.29,0.66c0.16,0.16,0.4,0.29,0.72,0.37c0.32,0.08,0.74,0.14,1.27,0.18c-0.02,0.27-0.03,0.4-0.05,0.67
				c-2.47-0.22-3.71-0.31-6.19-0.44c0.01-0.27,0.02-0.4,0.03-0.67c0.41,0.01,0.74,0,1-0.04c0.26-0.04,0.46-0.14,0.61-0.27
				c0.15-0.13,0.25-0.32,0.32-0.57c0.06-0.25,0.11-0.59,0.13-1c0.1-1.63,0.18-2.85,0.25-4.07c0.08-1.22,0.15-2.45,0.26-4.07
				c0.03-0.41,0.02-0.74,0-0.99c-0.03-0.25-0.11-0.46-0.23-0.61c-0.12-0.15-0.3-0.27-0.55-0.33c-0.25-0.07-0.57-0.12-0.97-0.17
				c0.01-0.27,0.02-0.4,0.04-0.67c2.36,0.13,3.54,0.21,5.9,0.42c1.73,0.15,3.03,0.58,3.91,1.27
				C159.09,170.89,159.47,171.77,159.35,172.83z M151.8,174.96c0.52,0.04,0.78,0.06,1.29,0.1c1.21,0.1,2.13-0.03,2.76-0.39
				c0.63-0.37,0.99-1.04,1.09-2.02c0.09-0.94-0.08-1.64-0.52-2.09c-0.44-0.45-1.17-0.73-2.19-0.82c-0.69-0.06-1.03-0.09-1.72-0.14
				c-0.21-0.02-0.33,0.08-0.34,0.27C152.02,171.91,151.95,172.93,151.8,174.96z"/>
			<path class="st28" d="M163.83,179.44c0.26,0.04,0.4,0.06,0.66,0.1c0.01,0.53,0.1,1.02,0.27,1.47c0.17,0.45,0.41,0.84,0.71,1.19
				c0.3,0.34,0.66,0.62,1.09,0.85c0.42,0.23,0.9,0.39,1.42,0.47c0.86,0.15,1.58,0.07,2.15-0.24c0.57-0.31,0.92-0.81,1.04-1.5
				c0.05-0.29,0.05-0.56-0.01-0.82c-0.06-0.26-0.19-0.53-0.38-0.79c-0.2-0.27-0.48-0.54-0.84-0.83c-0.36-0.29-0.83-0.62-1.4-0.97
				c-0.69-0.43-1.26-0.83-1.73-1.2c-0.46-0.37-0.82-0.73-1.08-1.09c-0.26-0.36-0.42-0.73-0.5-1.1c-0.08-0.37-0.09-0.78-0.03-1.23
				c0.07-0.53,0.24-1.01,0.51-1.43c0.27-0.42,0.61-0.77,1.03-1.04c0.42-0.27,0.9-0.46,1.44-0.56c0.53-0.1,1.11-0.09,1.72,0.01
				c0.55,0.09,1.05,0.26,1.49,0.5c0.44,0.24,0.88,0.6,1.3,1.04c0.25-0.27,0.37-0.42,0.62-0.69c0.17,0.03,0.25,0.05,0.42,0.08
				c-0.17,1.39-0.25,2.08-0.42,3.47c-0.27-0.05-0.4-0.08-0.68-0.13c-0.12-1-0.43-1.78-0.91-2.34c-0.48-0.56-1.12-0.91-1.91-1.04
				c-0.75-0.13-1.39-0.05-1.88,0.22c-0.5,0.27-0.79,0.71-0.88,1.3c-0.04,0.28-0.03,0.54,0.03,0.78c0.07,0.24,0.2,0.48,0.38,0.71
				c0.19,0.24,0.44,0.48,0.76,0.74c0.32,0.26,0.72,0.54,1.21,0.85c0.83,0.53,1.51,1.02,2.04,1.45c0.53,0.44,0.94,0.85,1.23,1.25
				c0.29,0.39,0.46,0.78,0.54,1.17c0.08,0.39,0.07,0.81-0.01,1.26c-0.11,0.57-0.33,1.08-0.65,1.51c-0.32,0.43-0.72,0.78-1.2,1.05
				c-0.48,0.27-1.03,0.44-1.64,0.53c-0.61,0.09-1.26,0.07-1.96-0.05c-0.66-0.11-1.24-0.3-1.74-0.57c-0.5-0.27-0.99-0.67-1.48-1.19
				c-0.24,0.31-0.37,0.47-0.61,0.78c-0.16-0.02-0.24-0.04-0.4-0.06C163.68,181.79,163.73,181.01,163.83,179.44z"/>
			<path class="st28" d="M184.53,182.82c-1.88-0.49-2.82-0.72-4.71-1.16c-0.3,0.42-0.56,0.79-0.78,1.12
				c-0.22,0.33-0.4,0.61-0.55,0.85c-0.15,0.24-0.25,0.45-0.32,0.63c-0.08,0.17-0.13,0.32-0.15,0.43c-0.07,0.32-0.02,0.56,0.17,0.73
				c0.18,0.17,0.52,0.31,1,0.42c-0.06,0.26-0.09,0.39-0.15,0.65c-1.67-0.39-2.51-0.58-4.19-0.93c0.05-0.26,0.08-0.39,0.13-0.65
				c0.27,0.02,0.51,0.02,0.71,0.01c0.2-0.02,0.39-0.06,0.55-0.13c0.16-0.07,0.32-0.18,0.47-0.32c0.15-0.14,0.29-0.32,0.45-0.54
				c1.38-2.03,2.44-3.54,3.51-5.04c1.07-1.5,2.16-3,3.64-4.98c0.32,0.08,0.48,0.11,0.79,0.19c0.37,2.13,0.63,3.73,0.88,5.32
				c0.25,1.6,0.49,3.19,0.78,5.32c0.1,0.71,0.2,1.28,0.29,1.71c0.1,0.43,0.21,0.77,0.34,1.01c0.13,0.24,0.3,0.43,0.49,0.54
				c0.2,0.12,0.44,0.22,0.73,0.3c-0.07,0.26-0.11,0.4-0.18,0.66c-2.22-0.65-3.34-0.96-5.58-1.53c0.07-0.27,0.1-0.4,0.16-0.66
				c0.61,0.16,1.04,0.21,1.3,0.16s0.42-0.21,0.48-0.47c0.03-0.11,0.05-0.22,0.06-0.32c0.01-0.1,0.02-0.21,0.02-0.33
				c0-0.12-0.01-0.26-0.02-0.41c-0.02-0.16-0.04-0.34-0.07-0.55C184.69,184.03,184.64,183.63,184.53,182.82z M180.37,180.88
				c1.62,0.38,2.43,0.58,4.04,1c-0.29-2.21-0.45-3.31-0.78-5.52C182.31,178.16,181.65,179.06,180.37,180.88z"/>
			<path class="st28" d="M204.41,183.64c-0.31,0.88-0.85,1.5-1.62,1.88c-0.76,0.38-1.79,0.44-3.07,0.22
				c0.95,2.3,1.41,3.46,2.27,5.77c0.17,0.48,0.41,0.86,0.71,1.16s0.7,0.58,1.17,0.85c-0.09,0.25-0.14,0.38-0.23,0.62
				c-1.29-0.5-1.94-0.75-3.23-1.23c-0.91-2.68-1.39-4.01-2.41-6.68c-0.09-0.24-0.18-0.44-0.28-0.6c-0.1-0.15-0.21-0.29-0.34-0.4
				c-0.13-0.11-0.28-0.2-0.47-0.29c-0.19-0.08-0.41-0.17-0.68-0.25c-0.44,1.39-0.65,2.08-1.09,3.47c-0.13,0.41-0.21,0.76-0.24,1.04
				c-0.03,0.28,0.01,0.52,0.13,0.71s0.32,0.38,0.61,0.53c0.3,0.15,0.7,0.32,1.21,0.49c-0.08,0.25-0.12,0.38-0.21,0.63
				c-2.38-0.82-3.58-1.21-5.98-1.94c0.07-0.25,0.11-0.38,0.19-0.64c0.4,0.11,0.73,0.18,1,0.2s0.48-0.02,0.65-0.11
				c0.18-0.09,0.33-0.25,0.45-0.48c0.12-0.23,0.24-0.55,0.36-0.94c0.47-1.56,0.82-2.73,1.18-3.9c0.35-1.17,0.71-2.34,1.18-3.9
				c0.12-0.39,0.2-0.71,0.23-0.96c0.03-0.25,0-0.47-0.08-0.65c-0.08-0.18-0.24-0.33-0.47-0.46c-0.23-0.13-0.53-0.26-0.91-0.4
				c0.07-0.26,0.11-0.38,0.19-0.64c2.29,0.7,3.43,1.08,5.7,1.85c1.66,0.57,2.85,1.31,3.55,2.2
				C204.6,181.7,204.77,182.64,204.41,183.64z M196.5,183.86c0.5,0.16,0.75,0.25,1.25,0.41c1.17,0.39,2.1,0.5,2.8,0.29
				c0.7-0.2,1.22-0.76,1.53-1.69c0.31-0.89,0.29-1.62-0.03-2.16c-0.33-0.55-0.98-1-1.97-1.33c-0.66-0.23-1-0.34-1.66-0.56
				c-0.2-0.07-0.34,0-0.4,0.18C197.42,180.95,197.11,181.92,196.5,183.86z"/>
			<path class="st28" d="M210.28,184.63c-0.07-0.35-0.14-0.65-0.22-0.89c-0.08-0.24-0.19-0.45-0.3-0.62
				c-0.12-0.17-0.26-0.31-0.42-0.42c-0.16-0.11-0.37-0.21-0.62-0.31c0.09-0.25,0.14-0.37,0.24-0.62c2.25,0.89,3.36,1.35,5.59,2.31
				c-0.1,0.24-0.15,0.37-0.25,0.62c-0.59-0.25-1.02-0.39-1.29-0.41c-0.27-0.02-0.45,0.07-0.53,0.28c-0.09,0.23-0.09,0.61,0.01,1.14
				c0.39,2.18,0.58,3.26,0.91,5.43c0.03,0.01,0.04,0.02,0.07,0.03c1.28-0.88,1.93-1.32,3.24-2.18c0.62-0.41,1.08-0.74,1.38-1
				c0.3-0.26,0.5-0.49,0.59-0.69c0.09-0.2,0.07-0.38-0.07-0.53c-0.13-0.16-0.41-0.33-0.83-0.52c0.11-0.24,0.16-0.37,0.27-0.61
				c1.61,0.73,2.41,1.11,4.01,1.87c-0.11,0.24-0.16,0.36-0.27,0.6c-0.24-0.12-0.48-0.19-0.7-0.22c-0.22-0.03-0.48,0.01-0.77,0.1
				c-0.29,0.09-0.64,0.24-1.05,0.47c-0.4,0.22-0.9,0.54-1.5,0.93c-1.79,1.17-2.68,1.76-4.43,2.97c-0.32,0.76-0.49,1.15-0.81,1.91
				c-0.22,0.53-0.38,0.96-0.48,1.29c-0.1,0.33-0.11,0.62-0.05,0.84c0.05,0.23,0.19,0.42,0.4,0.59c0.21,0.16,0.51,0.33,0.91,0.51
				c-0.11,0.24-0.16,0.37-0.26,0.61c-2.13-0.97-3.19-1.44-5.34-2.34c0.1-0.25,0.15-0.37,0.25-0.61c0.4,0.17,0.73,0.28,0.99,0.32
				c0.26,0.04,0.49,0,0.69-0.11c0.2-0.11,0.38-0.31,0.54-0.59c0.17-0.28,0.36-0.67,0.56-1.16c0.32-0.79,0.49-1.19,0.81-1.97
				C211.07,188.83,210.82,187.44,210.28,184.63z"/>
		</g>
	</g>
</g>
</svg>
