<svg id="Layer_1" data-name="Layer 1" xmlns="http://www.w3.org/2000/svg" viewBox="0 0 555.73 562.44"><defs><style>.cls-1{fill:#0c0c0d;}.cls-2{fill:#344c98;}.cls-3{fill:#fcfcfc;}</style></defs><title>rhenania-hinsbeck-vektor</title><g id="LRQrON"><path class="cls-1" d="M486.1,63.53H505c.13.27.25.75.41.76,14.94,1.43,23.35,14.21,23.38,28.86,0,18.95-1.12,37.91.73,56.84,2.35,24,12.64,44.44,27.48,62.76,4.06,5,9.29,9.4,12.09,15.05A53.28,53.28,0,0,1,575,251.32c0,18,.36,36-1.62,54a346.2,346.2,0,0,1-13.17,64.48,343.84,343.84,0,0,1-65.18,119.76c-19.46,23.38-41,44.65-63.87,64.62a811,811,0,0,1-66,51.66c-10.79,7.62-21.5,15.38-34.87,17.86-4.56.85-9.32.44-13.71,2.28h-8.52c-3.59-2-7.64-1.05-11.45-1.78-13.76-2.62-26.89-6.82-38.88-14.32-12.93-8.08-25.52-16.69-37.95-25.53a696.57,696.57,0,0,1-81.56-67.6,702.46,702.46,0,0,1-54.79-60.42c-20.14-24.68-35.79-51.6-44.32-82.7A498.79,498.79,0,0,1,26.8,317.91c-2.44-15.76-4.41-31.54-5.8-47.45-.46-5.16.54-10.59-1.65-15.58V210.42c1.92-6.77,1.39-13.87,2.79-20.73,1.3-6.34,1.75-12.92,5.82-18.31,8.56-11.32,18.32-21.56,28.28-31.52,18.64-18.64,37.83-36.7,58-53.68,7.81-6.59,15.56-13.31,24.51-18.32,1.25-.7,2.47-1.44,4.31-1.07,10.42,2.14,20.91,3.89,31.4,5.68,24.42,4.15,49,6.44,73.67,8.26C263.49,81.86,279,82,294.42,82c29.47,0,58.88-.82,88.21-4,11.1-1.18,22.26-1.79,33.32-3.23q26-3.37,51.9-7.62C474,66.24,480.28,66.08,486.1,63.53ZM111.36,159c-4.81-5.09-9.54-10.27-15.15-14.49-2.25-2.37-4.35-4.93-6.79-7.07-5.35-4.7-10.29-4.2-15.34,1.27-9.1,7.77-17.3,16.48-25.56,25.13l-1,1c-3.08,1.75-4.89,5-7.67,7-10.36,7.54-8.68,19.75-3.43,27.71,7.43,11.28,15.57,22,25.31,31.38,3.86,5.46,8,10.71,13.41,14.65,3.7,2.68,7.77,3,11.34,0q25.8-21.78,51.38-43.85c5.14-4.45,5.72-10.69,1.53-15.77a64.18,64.18,0,0,0-12-11.43A146.08,146.08,0,0,0,111.36,159Zm75.38,2.91a270.75,270.75,0,0,0-19.89,22.23c-4.26,4.17-4.69,7.12-1.2,12.63a155.87,155.87,0,0,0,24.54,29.83c7.39,7,14.94,13.8,22.73,20.31,6.92,5.79,11.85,5.24,18.21-1,2.49-2.46,5.1-4.79,7.71-7.12,8.63-7.69,17.75-14.8,24-25,4.9-8.1,5.12-15.91.73-24a581.91,581.91,0,0,0-35-55.91c-4.51-6.45-10.73-6.64-16.25-.88C203.68,142.5,194.82,151.85,186.74,161.92ZM468.68,503.1c31.19-35,58-72.89,74.63-117.61s23.94-90.66,21.18-139c-57.7,26.15-113.52,54.58-168.21,86.91,21.75,7.38,40,18.73,55,35,25.83,27.92,35.08,61.07,29.32,98.82-1.91,12.53-7.06,23.79-12.68,34.89-.87.8-1.79,1.57-1.56,3C467.62,504.9,468.11,504,468.68,503.1Zm-420-141c-.29,2.3.46,4.83,1.5,7.41C56,384.1,62.31,398.45,69.37,412.46c14.31,28.38,31.9,54.32,54.74,76.32,4.48,4.31,9,8.59,14.91,10.84,4,1.54,7.63,1.95,11.38-1.32A1602.78,1602.78,0,0,1,322.07,367.89c72.28-47.65,146.92-91,225.78-126.42,5.81-2.61,7.84-6.1,6.21-11.77A29,29,0,0,0,548,217.87c-18.65-20.51-27.38-45.52-29.39-72.77A286.36,286.36,0,0,1,519.5,98c1.06-11.5-5.39-18.45-17.27-14.39a62.69,62.69,0,0,0-9,4.18c-14.35,7.69-28.62,15.53-43,23.17-51.93,27.6-104.51,53.91-156.1,82.17-7.62,4.17-14.42,8-17.3,18-3.13,10.79-11.12,19.32-18.7,27.56-27.39,29.76-60.26,52.67-92.4,76.47-5.33,3.94-11.21,4.17-17.45,1.93-5.24-1.88-9.67-5.42-14.92-7.17-4.75-1.59-8.6-7.24-13.05-6.41-4.67.86-8.61,5.59-13,8.43C90.14,323,73.06,334.24,57,347,52.35,350.62,48,354.7,48.66,362.11ZM424.43,546.19c-41.16,19.5-82.37,21.94-123-.16s-64-56.22-65.52-104.69c-28.24,21.46-55.13,43.67-81.48,66.55-3.78,3.29-3.73,6.55.07,10.3,10.3,10.17,20.54,20.41,31.65,29.69,26.77,22.37,56.36,40.15,87,56.24,25.51,13.4,50.41,13,75.24-2.21a578.92,578.92,0,0,0,51.86-35C408.68,560.42,417,553.89,424.43,546.19ZM193.84,88.59A518.35,518.35,0,0,1,239.5,138c11.57,14.42,22.62,29.23,29.87,46.55,3.13,7.48,6.9,8.83,13.69,4.57,23.79-15,48.28-28.63,73.18-41.54C399.83,125,444.3,104.24,488.47,82.87c1.38-.67,3.34-.73,4.41-3.79C393.12,93,293.87,102.57,193.84,88.59ZM380.71,397.83c2.34.88,3.69-.45,5.11-2.19,5.65-6.91,11.44-13.71,17.15-20.58,4.51-5.44,4.54-9.46.22-15-3.77-4.8-8-9.24-13.22-12.25s-10.68-4.53-17.06-.5c-29.43,18.58-58.88,37.12-87.2,57.44-9.47,6.8-18.63,14.06-28.17,20.76-3.22,2.26-3.83,4.59-2.77,8.07,3.68,12.14,12,20,22.57,25.85,1.85,1,3.61.34,5.43-.34,10.43-3.93,20.84-7.95,31.38-11.54,3.36-1.14,4.64-2.64,4.58-6.27-.07-3.33.84-6.67,1.26-10,1.19-9.29,5.81-17.18,10-25.2,1.73-3.31,1.4-5.91-.94-8.6-3.24-3.73-6.37-7.56-9.55-11.33-.79-.93-2.17-1.71-.29-2.95,1.3-.85,2.26-2,3.77,0,3.1,4.05,6.73,7.69,9.68,11.84,2,2.84,4.26,3.33,7.25,2.57,6.59-1.67,13.23-2.66,20.07-1.86S373.79,397.16,380.71,397.83ZM43.41,349.65C63.92,327,89,312.34,113.06,295.56c-32.44-24.73-56.73-57.24-83.48-89C23.58,255.92,31.64,302.44,43.41,349.65Zm110.29-41.6a23.89,23.89,0,0,0,14.38-5.61q19.6-16.68,38.84-33.79c5.14-4.58,4.85-11-.1-16Q183.87,229.33,161,206c-5.12-5.21-9.37-5.54-14.91-.93q-25.27,21-50.5,42.09c-6.85,5.73-7,10.1-.79,16.25,5.08,5,10.19,10.06,15.22,15.17,9.86,10,20.35,19.16,32.69,25.94A25.49,25.49,0,0,0,153.7,308.05Zm0-231.84A15.06,15.06,0,0,0,145.23,79c-4.08,2.7-8.07,5.55-12.19,8.19-13.47,8.65-24.35,20.26-35.15,31.94-4.19,4.53-4,11.38.51,16.1,13.16,13.63,26.32,27.28,39.86,40.52,9.16,9,19,8.15,27.64-1.26q20.41-22.11,40.94-44.11c5.06-5.42,5.48-10.24.43-15.57a210.39,210.39,0,0,0-43-35A21.21,21.21,0,0,0,153.74,76.21Zm246,455.23a25.76,25.76,0,0,0,16.2-4.29A95.07,95.07,0,0,0,437.18,509c10.48-12.37,13.78-26.35,8-42-.74-2-1.25-4.34-3.73-5.23-11.51-4.12-23-8.4-34.53-12.38-2.59-.89-5.11-.93-7.54,1.88a80.24,80.24,0,0,1-32.91,23.27c-3.12,1.17-4.48,3.29-4,6.64,1.49,10.31,3,20.62,4.48,30.93a9.41,9.41,0,0,0,3.26,6.24C379,525,388.16,531.17,399.7,531.44Zm-121.11-51.8c.42,8.56.73,17.79,5.58,25.58,11.18,17.95,26,29.54,48.4,27.1a45.37,45.37,0,0,0,28.65-14.13,4.77,4.77,0,0,0,1.42-4.66c-1.87-11.73-3.66-23.47-5.18-35.24-.3-2.37-1.19-3.29-3.15-4-12.71-4.33-23.22-12-32-22.19-1.44-1.66-2.51-2.15-4.74-1.26-10.37,4.11-20.84,7.95-31.29,11.84a11,11,0,0,0-6.82,7.39C278.41,473.12,278.88,476.16,278.59,479.64Zm184-50.58a56.14,56.14,0,0,0-.44-5.77,89.85,89.85,0,0,0-18.43-38.89c-7.14-9-17.37-12.78-28.66-13.43a5.76,5.76,0,0,0-5.26,2.41c-5.85,7.15-11.73,14.28-17.91,21.12-3.23,3.58-3.77,6.74-1.41,11.08,6,11.07,11.53,22.37,13.61,35.07a6.55,6.55,0,0,0,4.51,5.61c10.24,3.45,20.42,7.1,30.58,10.78,2.69,1,5.43,1.42,7.65-.47C455.56,449.14,461.51,440,462.61,429.06ZM326.68,549.53c-1.4-4.19-3.5-7.11-7.82-8.73A105.15,105.15,0,0,1,281,516.36c-3.64-3.67-7.41-4.6-12.82-4.19C283.41,532.43,303.74,543,326.68,549.53ZM458,505.79c-4.77-1.27-7.71,0-10.74,3.42-9.95,11.24-21.11,21.1-34.64,27.76-4,2-5.43,6-7.55,9.58C427.65,539.84,444.51,525.53,458,505.79Zm-5.07-126.52c-3.15,3.19-2.4,5.57-.45,8.74,7.49,12.23,14.49,24.77,15.83,39.57.42,4.56,3.55,5.63,7.2,7A116,116,0,0,0,452.93,379.27Z" transform="translate(-19.35 -63.53)"/><path class="cls-2" d="M48.66,362.11C48,354.7,52.35,350.62,57,347,73.06,334.24,90.14,323,107.31,311.9c4.39-2.84,8.33-7.57,13-8.43,4.45-.83,8.3,4.82,13.05,6.41,5.25,1.75,9.68,5.29,14.92,7.17,6.24,2.24,12.12,2,17.45-1.93,32.14-23.8,65-46.71,92.4-76.47,7.58-8.24,15.57-16.77,18.7-27.56,2.88-9.91,9.68-13.78,17.3-18,51.59-28.26,104.17-54.57,156.1-82.17,14.38-7.64,28.65-15.48,43-23.17a62.69,62.69,0,0,1,9-4.18c11.88-4.06,18.33,2.89,17.27,14.39a286.36,286.36,0,0,0-.92,47.09c2,27.25,10.74,52.26,29.39,72.77a29,29,0,0,1,6.09,11.83c1.63,5.67-.4,9.16-6.21,11.77C469,276.92,394.35,320.24,322.07,367.89A1602.78,1602.78,0,0,0,150.4,498.3c-3.75,3.27-7.37,2.86-11.38,1.32-5.92-2.25-10.43-6.53-14.91-10.84-22.84-22-40.43-47.94-54.74-76.32-7.06-14-13.38-28.36-19.21-42.94C49.12,366.94,48.37,364.41,48.66,362.11ZM428.82,249.38c8,2.27,12.75-2.72,10.33-11.26-2.89-10.17-7.27-19.76-12-29.17-3.95-7.76-11.59-7.88-14.7.15-.06.15-.5.15-.84.24-1.48-3.89-2.79-7.85-4.52-11.6-.57-1.25-.23-5-3.23-2.92-2.36,1.68-8.06.85-5.68,7,6.38,16.55,12.83,33.06,20,49.26.72,1.63,1.37,4.93,2.77,4.34,2.55-1.07,6.39-1,7.1-5Zm-99.56,26.31c1.61.35,1.95,1.73,2.59,2.77,3.14,5.18,6.66,10.19,9.25,15.66,2.81,5.95,5.45,1.81,8.43.64,4.18-1.64,1.78-3.77.6-5.82-8.4-14.69-16.48-29.56-23.4-45.06-2.93-6.55-2.84-6.31-9.24-3-3.2,1.63-3.49,3.13-1.9,6.13,2.47,4.65,4.43,9.57,6.84,14.25,2.05,4-2,3.46-3.32,4.8s-2.84,1.68-3.91-.79c-1.59-3.67-3.53-7.17-5.3-10.76-3.69-7.52-3.64-7.45-10.75-3.08-2,1.21-2.61,2.12-1.35,4.45,9.07,16.72,18.79,33,28.7,49.24,1.06,1.72,2,2.23,3.69,1a21.46,21.46,0,0,1,3.68-2.15c2.56-1.17,3.06-2.49,1.33-5.09-3.45-5.17-6.59-10.56-9.7-16-.68-1.18-2.79-2.41-1.35-3.94S327.57,276.71,329.26,275.69ZM144.14,430.3c-5.13-2.35-8.07-6.39-11.22-10.18-2.48-3-5-6.08-8.91-6.77-3.2-.58-3.29-2.25-3.44-4.87-.39-7.11-4.75-11.78-10.32-15.16-5-3.06-9.74-1-14,2.26-3.55,2.68-6.85,5.7-10.49,8.21-2.73,1.89-2.94,3.19-.72,5.85,9.39,11.26,18.55,22.72,27.78,34.12,5.26,6.5,5.17,6.4,11.84,1.27,2.19-1.68,2.27-2.7.5-4.73-3.35-3.84-6.47-7.89-9.56-11.95-.8-1-3-2-1-3.85,1.49-1.35,3.26-2.26,5.14-1a19.91,19.91,0,0,1,3.85,3.49c1.76,2.05,3.26,4.33,5,6.4,4.35,5.13,4.38,5.1,9.63,1.21ZM130.5,390c-2.74-3.48-5.51-6.77-8-10.25-1.49-2.06-2.79-2.82-4.83-.78a16.57,16.57,0,0,1-3.4,2.6c-2,1.16-2.07,2.19-.58,4.06,10.64,13.36,21.16,26.82,31.73,40.23.57.72,1.25,2.16,2,1.71,2.46-1.4,5.11-2.83,6.89-5,1.61-1.92-1.1-3.27-2.12-4.63-4.68-6.27-9.56-12.38-14.28-18.62-1.26-1.67-2.56-4-.76-5.67,2.24-2,3.62.68,4.81,2.15q6.93,8.56,13.63,17.3c4.85,6.29,4.74,6.24,10.73,1.3,1.52-1.26,1.45-2,.36-3.39-6.38-8.18-12.42-16.65-19.1-24.57C140.73,378.33,134.19,379.78,130.5,390ZM499.67,191.28c3.91,3.75,7.23,6.13,9.5,9.3,3.38,4.71,6.35,3.49,10.08.76,2-1.5,2-2.25.24-3.87-5.68-5.33-11.2-10.84-16.87-16.19a7.45,7.45,0,0,1-2.49-5.87c-.06-5.72-.5-11.43-.79-17.31-8,3.74-8,3.74-7.11,11.82.25,2.29.36,4.6.53,6.9-4.6-7.1-8.45-14.38-12.25-21.69-1-1.93-1.8-4.16-4.37-1.82-1.8,1.65-6.12,1.25-3.54,6.25,8.57,16.6,16.67,33.47,24.94,50.24.9,1.82,1.58,4.42,4.16,2,1.85-1.76,7.13-1.28,4.25-6.48A72.52,72.52,0,0,1,499.67,191.28ZM277.55,312.7a19.26,19.26,0,0,0,9.85,15.9,7.69,7.69,0,0,0,10.13-2.22c1.39-1.88.77-6,5.59-4.18,1.5.57,5.06-2.14,6.4-4.2.94-1.46-2.12-3.05-3.14-4.77-1.3-2.2-2.77-4.28-4.17-6.42-4.62-7.07-9-14.34-13.94-21.15-4.14-5.66-11.93-5.29-17.89.24-4.81,4.47-5.27,12.76-.92,17.34.39.41,1.19,1,1.44.87a67.54,67.54,0,0,0,6.42-4c1.82-1.31-.16-2.49-.36-3.75-.27-1.59-.62-3.3,1.4-4s3.27.72,4,2.31c1.28,2.82-.07,5.3-1.42,7.69C279.12,305.53,277.32,308.73,277.55,312.7ZM360,238.32c-3.34-4.66-5.45,0-7.92.55s-1.58,2.47-.85,4.11c5.53,12.42,11.74,24.49,18.08,36.49,2.65,5,4.8.76,7.15.06,3.12-.92,2.5-2.57,1.23-5q-6.58-12.48-12.66-25.26c-1-2.06-2.27-5.22.51-6.44s3.2,2.32,4.1,4.06c4.3,8.38,8.6,16.77,12.5,25.35,1.93,4.23,4,2,6.19.82s4.46-1.76,2.46-5.42c-3.82-7-7.09-14.3-10.5-21.52-2-4.18-3.32-8.68-6-12.49-3.69-5.2-9.47-4.91-12.6.67A39.92,39.92,0,0,0,360,238.32ZM246,360.06c-4.37-4.05-7.11-8.36-10-12.53-3.87-5.46-7.58-11.07-11.78-16.25-4.76-5.86-10.27-6-17.08-1.09-6.25,4.52-7.63,10.13-3.9,16.66.7,1.23,1.46,4.25,3.54,1.92,1.9-2.12,7.17-1.56,5.5-6.57-.53-1.6-1.3-2.94.25-4.32a2.37,2.37,0,0,1,3-.5,4.29,4.29,0,0,1,2.37,4.35c-.34,2.79-2,5-3.23,7.43-3.57,7-2.85,12.69,2.39,18.51,2.73,3,5.91,5.63,10.24,4.78,4.56-.9,6.66-4.4,7.31-8.93C239.67,366.85,241.58,361.08,246,360.06Zm-12-43.51c-4.49-3.66-6.46.82-8.88,2.48-2.63,1.8.48,3.27,1.32,4.51,6.42,9.53,13,18.93,19.57,28.37,3.7,5.35,3.6,5.21,9.13,1.62,2.36-1.53,2.42-2.64.86-4.81-3.54-4.91-6.93-10-10.24-15-2.18-3.33-4.86-6.33-6.3-10.15-.49-1.31-.69-2.54.53-3.48,1.38-1.06,2.37-.05,3.23.9a29.93,29.93,0,0,1,2.67,3.37c4.73,7,9.5,14,14.1,21.1,1.49,2.3,2.71,3.79,5.26,1.32a19.25,19.25,0,0,1,3.56-2.35c1.11-.68,1.59-1.32.67-2.63-7.05-10.06-13.14-20.81-20.92-30.32-2.1-2.58-4.83-4.78-8.62-3.67C235.89,309,234.21,312,234,316.55ZM181.91,354.1c-4.5-4.05-6.68.51-9,2.38s.77,3.51,1.75,4.85c6.26,8.67,12.75,17.17,19.14,25.74,4.14,5.56,4.05,5.46,9.86,1.36,1.9-1.33,2.11-2.12.7-4-4.81-6.36-9.47-12.85-14.12-19.33a40.68,40.68,0,0,1-2.9-4.94,2.52,2.52,0,0,1,.83-3.41c1.21-.92,2.11,0,2.86.8a34.66,34.66,0,0,1,3.07,3.65c4.92,6.69,9.86,13.35,14.64,20.14,1.28,1.82,2.31,2.34,4.1.85a49,49,0,0,1,4.26-3c1.2-.79,1.25-1.57.39-2.73-6.83-9.23-13-19-20.52-27.67-2.38-2.73-5.3-4.91-9.12-3.74C183.78,346.27,181.84,349.42,181.91,354.1ZM465.17,225.26c-.13-.65-.38-2.4-.81-4.09-1.67-6.51-2.09-6.5-7.83-3.39-3.2,1.73-1.34,3.46-.84,5.43.42,1.67.95,3.49-.91,4.79a1.9,1.9,0,0,1-2.59-.14,16.32,16.32,0,0,1-4.68-9.25c-.42-2.72,3.06-2.53,4.76-3.69a49.17,49.17,0,0,1,6.18-3.47c1.41-.69,1.81-1.43,1.12-3-2.17-4.8-3.89-9.84-7.12-14.05-3.81-5-9-5.77-14.19-2.32-4.94,3.28-6.69,8.12-5.56,13.76A80.16,80.16,0,0,0,444,233.68c3.34,5.18,7.46,6.41,12.63,4.63C462.07,236.45,465.19,232.07,465.17,225.26ZM188.81,395.73c0-4.34-1.84-9-3.75-11.09-.53-.57-1.06-1.56-1.85-1.08a27.75,27.75,0,0,0-6.17,4.35c-1.51,1.6,1,2.62,1.55,4s1.18,2.64-.2,3.9-2.95.94-4.19-.26-2.49-2.88-3.81-4.24c-1.91-2-1.69-3.36.66-4.81,2.82-1.75,5.46-3.79,8.17-5.72,1-.71,2.3-1.24,1-2.88-3-3.87-5.58-8.23-9.64-11.17-5-3.64-10-3.31-15.21.76-4.78,3.76-6.55,8.38-4.12,13.5a68.81,68.81,0,0,0,18,23.26c4,3.33,8.51,2.87,12.83.38C186,402.36,188.72,399.23,188.81,395.73Zm212.58-129.4c5.15,0,10.32-4.41,11.44-9.8,1.9-9.12-5.23-19.62-14.23-21a59.05,59.05,0,0,1-6.51-1.14,4.41,4.41,0,0,1-3.47-4.09,3,3,0,0,1,1.87-3.09c2.32-1,3.08,1.06,3.79,2.54.92,1.9,2.19,1.73,3.35.74,1.65-1.4,5.22-.81,4.95-4.14-.42-5.11-6.94-9.62-11.92-8.57-5.84,1.23-10.17,5.9-10.58,11.42-.57,7.56,3.22,14.54,9.26,16.9a40.37,40.37,0,0,0,10.16,2,4.61,4.61,0,0,1,4.38,4.31c.17,1.32.09,2.71-1.33,3.29-2.57,1.05-3.68-.94-4.88-2.65-.19-.26-.31-.6-.56-.77-2.47-1.78-3.9.89-5.78,1.54-1,.33-2.58.41-2.23,2.41C389.83,260.47,396.88,266.32,401.39,266.33Zm89.35-55.15c-.29-1.17-.75-3.69-1.54-6.11-2.19-6.68-2.18-6.53-8.09-3.17-2.4,1.36-2.56,2.65-1.33,4.88a18.23,18.23,0,0,1,1.52,4.52,2.25,2.25,0,0,1-1.38,2.75c-1,.4-1.83-.46-2.32-1.26a117.42,117.42,0,0,1-10.33-22.6,2.16,2.16,0,0,1,.93-2.92c1.44-.66,2.42.1,3.11,1.31s1.31,2.56,2,3.8c.36.61.49,1.36,1.64,1.24,5-.53,7.14-4.75,4.46-9.14-.58-.95-1.18-1.9-1.84-2.8-3.87-5.25-7.74-6.68-12.53-4.68-5.24,2.2-8.05,7.27-6.9,13.29a74.55,74.55,0,0,0,12.44,29.35c3.51,5,7.1,6.13,11.78,4.43C487.88,222.07,490.71,218.17,490.74,211.18ZM257.12,296.3a29.09,29.09,0,0,1-3.23,2.1c-3.69,1.8-4.28,3.65-1.6,7.4,6.79,9.46,13,19.33,19.51,29,3.77,5.64,3.72,5.54,9.4,1.53,1.63-1.15,2.07-1.83.85-3.65-7.71-11.55-15.32-23.18-23-34.78C258.59,297.17,258.31,296.12,257.12,296.3Zm108.6-11.39-.62-1.17c-7.13-12.68-13.91-25.54-19.9-38.82-.72-1.58-1.5-1.8-2.91-.9a38.28,38.28,0,0,1-5,2.74c-1.89.82-1.57,1.87-.84,3.38,6.18,12.83,13,25.29,20.09,37.63.6,1,1.08,2.53,2.8,1.32C361.44,287.62,364.18,287.09,365.72,284.91Zm-31.83-41.33c2.28,0,8.75-4.52,8.32-5.4-1.45-3-.92-8-4.37-8.51-2.34-.32-7.23,1.52-7.49,5C330.13,237.69,332.17,241.08,333.89,243.58Zm-79,48.28c-.08-1.11-5.87-8.59-6.41-8.23-2.56,1.72-5.52,3-7.25,5.72-.44.7,5.8,8.23,6.57,8.19C249,297.47,255,292.67,254.92,291.86Z" transform="translate(-19.35 -63.53)"/><path class="cls-3" d="M424.43,546.19c-7.42,7.7-15.75,14.23-24.13,20.67a578.92,578.92,0,0,1-51.86,35c-24.83,15.16-49.73,15.61-75.24,2.21-30.65-16.09-60.24-33.87-87-56.24-11.11-9.28-21.35-19.52-31.65-29.69-3.8-3.75-3.85-7-.07-10.3C180.82,485,207.71,462.8,236,441.34c1.56,48.47,25,82.62,65.52,104.69S383.27,565.69,424.43,546.19Z" transform="translate(-19.35 -63.53)"/><path class="cls-3" d="M467.94,502.1c5.62-11.1,10.77-22.36,12.68-34.89,5.76-37.75-3.49-70.9-29.32-98.82-15.06-16.27-33.27-27.62-55-35,54.69-32.33,110.51-60.76,168.21-86.91,2.76,48.35-4.61,94.37-21.18,139s-43.44,82.58-74.63,117.61Zm52.75-171.17c-1.51-8.95-2.83-16.76-4.15-24.57s-1.33-7.62-9.19-7.64c-3.2,0-3.72,1.06-3.07,3.93,2.6,11.53,5.06,23.09,7.63,34.62,2.21,9.91,2.23,9.84,12.31,9.47,2-.07,3.07-.52,3.55-2.74,3-13.9,6.16-27.75,9.24-41.63.23-1.06.73-3-.1-3.1a41.57,41.57,0,0,0-9.84-.32c-2.14.21-1.73,2.78-2,4.33C523.57,312.1,522.25,320.94,520.69,330.93Zm-63.1-1.71c.27,2.51.48,5.39.9,8.24,1.06,7.15,4.53,10.09,11.87,10.2,8.25.12,12-2.6,13.28-9.78.25-1.42,1.79-4.14-1.37-3.74-2.56.32-6.49-2.73-7.62,2.23-.55,2.38-1.46,4.24-4,3.51-3.54-1-2.24-4.37-2.58-6.91s1-2.82,3.05-2.74c3.46.12,6.94.06,10.4,0,1,0,2.06.36,2.59-1.28,3.32-10.29-2.9-19.29-13.35-19.14-7.82.11-11.41,3.33-12.47,11.33C458,323.69,457.85,326.26,457.59,329.22ZM495,346.48c4.48,1.39,5.67-.5,5.45-5-.18-3.81.14-6.48-5.17-6.21-4.42.23-6.28.77-6.09,6C489.34,345.93,490.44,347.79,495,346.48Zm44.84-10.76c-4.38-1.16-6,.3-5.7,5,.25,3.72-.25,6.59,5.14,6.17,4-.31,6.31-.32,5.83-5.48C544.73,337.54,545.28,334,539.82,335.72Z" transform="translate(-19.35 -63.53)"/><path class="cls-3" d="M193.84,88.59c100,14,199.28,4.44,299-9.51-1.07,3.06-3,3.12-4.41,3.79C444.3,104.24,399.83,125,356.24,147.55c-24.9,12.91-49.39,26.58-73.18,41.54-6.79,4.26-10.56,2.91-13.69-4.57-7.25-17.32-18.3-32.13-29.87-46.55A518.35,518.35,0,0,0,193.84,88.59Z" transform="translate(-19.35 -63.53)"/><path class="cls-3" d="M380.71,397.83c-6.92-.67-13.83-1.22-20.71-2s-13.48.19-20.07,1.86c-3,.76-5.23.27-7.25-2.57-2.95-4.15-6.58-7.79-9.68-11.84-1.51-2-2.47-.87-3.77,0-1.88,1.24-.5,2,.29,2.95,3.18,3.77,6.31,7.6,9.55,11.33,2.34,2.69,2.67,5.29.94,8.6-4.21,8-8.83,15.91-10,25.2-.42,3.34-1.33,6.68-1.26,10,.06,3.63-1.22,5.13-4.58,6.27-10.54,3.59-20.95,7.61-31.38,11.54-1.82.68-3.58,1.36-5.43.34-10.59-5.82-18.89-13.71-22.57-25.85-1.06-3.48-.45-5.81,2.77-8.07,9.54-6.7,18.7-14,28.17-20.76,28.32-20.32,57.77-38.86,87.2-57.44,6.38-4,11.71-2.59,17.06.5s9.45,7.45,13.22,12.25c4.32,5.51,4.29,9.53-.22,15-5.71,6.87-11.5,13.67-17.15,20.58C384.4,397.38,383.05,398.71,380.71,397.83Z" transform="translate(-19.35 -63.53)"/><path class="cls-3" d="M43.41,349.65c-11.77-47.21-19.83-93.73-13.83-143.09,26.75,31.76,51,64.27,83.48,89C89,312.34,63.92,327,43.41,349.65Z" transform="translate(-19.35 -63.53)"/><path class="cls-3" d="M153.7,308.05a25.49,25.49,0,0,1-11-3.55c-12.34-6.78-22.83-15.93-32.69-25.94-5-5.11-10.14-10.13-15.22-15.17-6.2-6.15-6.06-10.52.79-16.25q25.2-21.09,50.5-42.09c5.54-4.61,9.79-4.28,14.91.93q22.91,23.36,45.87,46.66c5,5,5.24,11.43.1,16q-19.21,17.13-38.84,33.79A23.89,23.89,0,0,1,153.7,308.05Zm-21.61-53.18c-.3,5,.38,11.12.95,17.2,1,10.94,7.79,17.43,18.48,18.12,12.11.79,19.23-4.05,21.72-15.21.79-3.56.68-7.34.93-11,.06-.92.19-2.19-1.14-2.22-4.26-.09-8.74-.85-12.68.28-2.1.6-.59,4.92-1.09,7.51-.09.47-.26.93-.32,1.4-.46,3.29-1.63,6.16-5.41,6.06-4-.11-5.15-3.33-5.36-6.7-.43-6.9-.77-13.81-.8-20.72a102.59,102.59,0,0,1,.95-13.45c.37-2.87,1.88-5.26,5.18-5.21,2.91,0,4.55,1.84,5.11,4.72.21,1.1.82,2.23.69,3.27-.58,4.41,1.73,5.09,5.21,4.54a15.61,15.61,0,0,1,2.37,0c7.7,0,7.7,0,6.78-7.83-1.32-11.26-8.07-17.54-19.56-18.21-10.58-.62-18.26,5.08-20.51,15.74C132.15,239.9,132.08,246.85,132.09,254.87Z" transform="translate(-19.35 -63.53)"/><path class="cls-3" d="M153.74,76.21a21.21,21.21,0,0,1,10.52,3.51,210.39,210.39,0,0,1,43,35.05c5,5.33,4.63,10.15-.43,15.57q-20.52,22-40.94,44.11c-8.69,9.41-18.48,10.22-27.64,1.26-13.54-13.24-26.7-26.89-39.86-40.52-4.56-4.72-4.7-11.57-.51-16.1,10.8-11.68,21.68-23.29,35.15-31.94,4.12-2.64,8.11-5.49,12.19-8.19A15.06,15.06,0,0,1,153.74,76.21Zm11.46,38.54a10.84,10.84,0,0,1,1.89,0c4.1.71,6-.71,4.84-5.14a13.46,13.46,0,0,1-.13-1.92c-.94-9-7.52-14.83-17.14-15.18-10.09-.36-17.15,4.78-18.91,13.6-2.14,10.7.91,19.19,9.73,25.59,3.83,2.77,8,5.15,11,9.05,2.18,2.91,2.77,6.15.71,9.38a4.1,4.1,0,0,1-4.89,2c-3.62-1.16-4.11-4.55-3.89-7.45.36-4.65-1.73-5-5.44-4.94-9.41.24-9.45.08-8.18,9.72.92,7,4,12.6,11.08,14.57,7.73,2.14,15.39,2.18,21.6-4,6.9-6.88,8.12-26.19-1.91-33.51-3.7-2.7-7.42-5.4-11.09-8.16-2.18-1.63-4.2-3.51-5-6.26-.8-2.91-.2-5.72,2.72-6.86,3.21-1.26,5,.89,5.86,3.85a7,7,0,0,1,.41,2.83c-.35,2.52.8,3.07,2.95,2.83A34,34,0,0,1,165.2,114.75Z" transform="translate(-19.35 -63.53)"/><path class="cls-3" d="M399.7,531.44c-11.54-.27-20.66-6.43-29.49-13.12a9.41,9.41,0,0,1-3.26-6.24c-1.52-10.31-3-20.62-4.48-30.93-.48-3.35.88-5.47,4-6.64a80.24,80.24,0,0,0,32.91-23.27c2.43-2.81,4.95-2.77,7.54-1.88,11.56,4,23,8.26,34.53,12.38,2.48.89,3,3.22,3.73,5.23,5.78,15.65,2.48,29.63-8,42a95.07,95.07,0,0,1-21.28,18.18A25.76,25.76,0,0,1,399.7,531.44Z" transform="translate(-19.35 -63.53)"/><path class="cls-3" d="M278.59,479.64c.29-3.48-.18-6.52.84-9.53a11,11,0,0,1,6.82-7.39c10.45-3.89,20.92-7.73,31.29-11.84,2.23-.89,3.3-.4,4.74,1.26,8.81,10.18,19.32,17.86,32,22.19,2,.67,2.85,1.59,3.15,4,1.52,11.77,3.31,23.51,5.18,35.24a4.77,4.77,0,0,1-1.42,4.66,45.37,45.37,0,0,1-28.65,14.13c-22.41,2.44-37.22-9.15-48.4-27.1C279.32,497.43,279,488.2,278.59,479.64Z" transform="translate(-19.35 -63.53)"/><path class="cls-3" d="M462.61,429.06c-1.1,11-7.05,20.08-15.76,27.51-2.22,1.89-5,1.44-7.65.47-10.16-3.68-20.34-7.33-30.58-10.78a6.55,6.55,0,0,1-4.51-5.61c-2.08-12.7-7.6-24-13.61-35.07-2.36-4.34-1.82-7.5,1.41-11.08,6.18-6.84,12.06-14,17.91-21.12a5.76,5.76,0,0,1,5.26-2.41c11.29.65,21.52,4.47,28.66,13.43a89.85,89.85,0,0,1,18.43,38.89A56.14,56.14,0,0,1,462.61,429.06Z" transform="translate(-19.35 -63.53)"/><path class="cls-3" d="M212.3,132.93c5.52-5.76,11.74-5.57,16.25.88a581.91,581.91,0,0,1,35,55.91c4.39,8.11,4.17,15.92-.73,24-6.2,10.25-15.32,17.36-24,25-2.61,2.33-5.22,4.66-7.71,7.12-6.36,6.25-11.29,6.8-18.21,1-7.79-6.51-15.34-13.33-22.73-20.31a155.87,155.87,0,0,1-24.54-29.83c-3.49-5.51-3.06-8.46,1.2-12.63l.89.88c-4.43,4.56-2.12,8.79.7,12.91a174.93,174.93,0,0,0,26.81,31c6.48,5.85,12.92,11.78,19.74,17.19,5.63,4.47,8.88,3.9,14.14-.91s10.76-9.9,16.35-14.59a82.25,82.25,0,0,0,15.25-17c5.47-8.08,5.3-15.86.62-24.27-10.1-18.17-21.23-35.65-33-52.75-5-7.27-7.86-7.77-15.2-2.84Z" transform="translate(-19.35 -63.53)"/><path class="cls-3" d="M326.68,549.53c-22.94-6.5-43.27-17.1-58.53-37.36,5.41-.41,9.18.52,12.82,4.19a105.15,105.15,0,0,0,37.89,24.44C323.18,542.42,325.28,545.34,326.68,549.53Z" transform="translate(-19.35 -63.53)"/><path class="cls-3" d="M458,505.79c-13.49,19.74-30.35,34.05-52.93,40.76,2.12-3.56,3.53-7.6,7.55-9.58,13.53-6.66,24.69-16.52,34.64-27.76C450.29,505.79,453.23,504.52,458,505.79Z" transform="translate(-19.35 -63.53)"/><path class="cls-3" d="M452.93,379.27a116,116,0,0,1,22.58,55.3c-3.65-1.36-6.78-2.43-7.2-7C467,412.78,460,400.24,452.48,388,450.53,384.84,449.78,382.46,452.93,379.27Z" transform="translate(-19.35 -63.53)"/><path class="cls-3" d="M127.46,174.48a64.18,64.18,0,0,1,12,11.43c4.19,5.08,3.61,11.32-1.53,15.77q-25.54,22.11-51.38,43.85c-3.57,3-7.64,2.71-11.34,0-5.43-3.94-9.55-9.19-13.41-14.65l.87-.91c4.35,4.17,7.51,9.5,12.32,13.22,4.56,3.53,7.4,3.5,11.79-.16,2.31-1.92,4.52-4,6.81-5.93q20.26-17.26,40.55-34.5c8.3-7.08,8.48-11.19.91-18.84-2.78-2.82-5.6-5.6-8.41-8.4Z" transform="translate(-19.35 -63.53)"/><path class="cls-3" d="M61.77,230.91c-9.74-9.37-17.88-20.1-25.31-31.38-5.25-8-6.93-20.17,3.43-27.71,2.78-2,4.59-5.25,7.67-7l.92.83c-3.11,3.19-6,6.59-9.39,9.51-5.33,4.66-5.7,10.4-4.15,16.69.93,3.8,3.09,7,5.25,10.17C47,212,54.91,220.89,62.64,230Z" transform="translate(-19.35 -63.53)"/><path class="cls-3" d="M186.74,161.92c8.08-10.07,16.94-19.42,25.56-29l.89.87c-7.95,10.19-16.82,19.53-25.55,29Z" transform="translate(-19.35 -63.53)"/><path class="cls-3" d="M48.52,163.85c8.26-8.65,16.46-17.36,25.56-25.13l.87.88L49.33,164.79Z" transform="translate(-19.35 -63.53)"/><path class="cls-3" d="M166.85,184.15a270.75,270.75,0,0,1,19.89-22.23l.9.87Q177.7,173.9,167.74,185Z" transform="translate(-19.35 -63.53)"/><path class="cls-3" d="M74.08,138.72c5-5.47,10-6,15.34-1.27,2.44,2.14,4.54,4.7,6.79,7.07l-.84.91c-1.64-1.51-3.33-3-4.9-4.53-6.12-6.11-8.66-6.34-15.52-1.3Z" transform="translate(-19.35 -63.53)"/><path class="cls-3" d="M111.36,159a146.08,146.08,0,0,1,16.1,15.47l-.85.91-16.09-15.46Z" transform="translate(-19.35 -63.53)"/><path class="cls-3" d="M96.21,144.52c5.61,4.22,10.34,9.4,15.15,14.49l-.84.92-15.15-14.5Z" transform="translate(-19.35 -63.53)"/><path class="cls-3" d="M468.68,503.1c-.57.86-1.06,1.8-2.3,2-.23-1.45.69-2.22,1.56-3Z" transform="translate(-19.35 -63.53)"/><path class="cls-3" d="M47.56,164.82l1-1,.81.94-.85.86Z" transform="translate(-19.35 -63.53)"/><path class="cls-3" d="M329.26,275.69c-1.69,1-3.74,1.79-5.11,3.24s.67,2.76,1.35,3.94c3.11,5.4,6.25,10.79,9.7,16,1.73,2.6,1.23,3.92-1.33,5.09a21.46,21.46,0,0,0-3.68,2.15c-1.71,1.24-2.63.73-3.69-1-9.91-16.2-19.63-32.52-28.7-49.24-1.26-2.33-.63-3.24,1.35-4.45,7.11-4.37,7.06-4.44,10.75,3.08,1.77,3.59,3.71,7.09,5.3,10.76,1.07,2.47,2.57,2.15,3.91.79s5.37-.8,3.32-4.8c-2.41-4.68-4.37-9.6-6.84-14.25-1.59-3-1.3-4.5,1.9-6.13,6.4-3.27,6.31-3.51,9.24,3,6.92,15.5,15,30.37,23.4,45.06,1.18,2.05,3.58,4.18-.6,5.82-3,1.17-5.62,5.31-8.43-.64-2.59-5.47-6.11-10.48-9.25-15.66C331.21,277.42,330.87,276,329.26,275.69Z" transform="translate(-19.35 -63.53)"/><path class="cls-3" d="M144.14,430.3l-5.91,4.34c-5.25,3.89-5.28,3.92-9.63-1.21-1.75-2.07-3.25-4.35-5-6.4a19.91,19.91,0,0,0-3.85-3.49c-1.88-1.3-3.65-.39-5.14,1-2,1.83.21,2.81,1,3.85,3.09,4.06,6.21,8.11,9.56,11.95,1.77,2,1.69,3.05-.5,4.73-6.67,5.13-6.58,5.23-11.84-1.27-9.23-11.4-18.39-22.86-27.78-34.12-2.22-2.66-2-4,.72-5.85,3.64-2.51,6.94-5.53,10.49-8.21,4.25-3.22,8.95-5.32,14-2.26,5.57,3.38,9.93,8.05,10.32,15.16.15,2.62.24,4.29,3.44,4.87,3.86.69,6.43,3.8,8.91,6.77C136.07,423.91,139,428,144.14,430.3ZM105.88,418c1.43-1.07,2.09-1.46,2.63-2,2.24-2.15,2.73-4.66.94-7.27s-3.69-5.89-7.79-4.49c-2.9,1-4.78,2.42-1.68,5.55a60.55,60.55,0,0,1,4.77,5.9A13.57,13.57,0,0,1,105.88,418Z" transform="translate(-19.35 -63.53)"/><path class="cls-3" d="M428,250.38c-.71,4-4.55,4-7.1,5-1.4.59-2.05-2.71-2.77-4.34-7.18-16.2-13.63-32.71-20-49.26-2.38-6.14,3.32-5.31,5.68-7,3-2.12,2.66,1.67,3.23,2.92,1.73,3.75,3,7.71,4.52,11.6.34-.09.78-.09.84-.24,3.11-8,10.75-7.91,14.7-.15,4.77,9.41,9.15,19,12,29.17,2.42,8.54-2.37,13.53-10.33,11.26l-1.18-.14ZM415.74,220a70.28,70.28,0,0,0,8.49,20.18,2.55,2.55,0,0,0,3.29,1.19c1.38-.56,1.56-1.88,1.2-3.24a102.14,102.14,0,0,0-8.27-20.4,2.6,2.6,0,0,0-3.18-1.48C415.68,216.68,415.87,218.12,415.74,220Z" transform="translate(-19.35 -63.53)"/><path class="cls-3" d="M130.5,390c3.69-10.19,10.23-11.64,17.1-3.51,6.68,7.92,12.72,16.39,19.1,24.57,1.09,1.39,1.16,2.13-.36,3.39-6,4.94-5.88,5-10.73-1.3q-6.72-8.73-13.63-17.3c-1.19-1.47-2.57-4.17-4.81-2.15-1.8,1.62-.5,4,.76,5.67,4.72,6.24,9.6,12.35,14.28,18.62,1,1.36,3.73,2.71,2.12,4.63-1.78,2.12-4.43,3.55-6.89,5-.79.45-1.47-1-2-1.71-10.57-13.41-21.09-26.87-31.73-40.23-1.49-1.87-1.43-2.9.58-4.06a16.57,16.57,0,0,0,3.4-2.6c2-2,3.34-1.28,4.83.78C125,383.2,127.76,386.49,130.5,390Z" transform="translate(-19.35 -63.53)"/><path class="cls-3" d="M499.67,191.28a72.52,72.52,0,0,0,6.28,14c2.88,5.2-2.4,4.72-4.25,6.48-2.58,2.46-3.26-.14-4.16-2-8.27-16.77-16.37-33.64-24.94-50.24-2.58-5,1.74-4.6,3.54-6.25,2.57-2.34,3.37-.11,4.37,1.82,3.8,7.31,7.65,14.59,12.25,21.69-.17-2.3-.28-4.61-.53-6.9-.89-8.08-.91-8.08,7.11-11.82.29,5.88.73,11.59.79,17.31a7.45,7.45,0,0,0,2.49,5.87c5.67,5.35,11.19,10.86,16.87,16.19,1.73,1.62,1.8,2.37-.24,3.87-3.73,2.73-6.7,3.95-10.08-.76C506.9,197.41,503.58,195,499.67,191.28Z" transform="translate(-19.35 -63.53)"/><path class="cls-3" d="M277.55,312.7c-.23-4,1.57-7.17,3.39-10.39,1.35-2.39,2.7-4.87,1.42-7.69-.73-1.59-1.83-3.11-4-2.31s-1.67,2.45-1.4,4c.2,1.26,2.18,2.44.36,3.75a67.54,67.54,0,0,1-6.42,4c-.25.14-1-.46-1.44-.87-4.35-4.58-3.89-12.87.92-17.34,6-5.53,13.75-5.9,17.89-.24,5,6.81,9.32,14.08,13.94,21.15,1.4,2.14,2.87,4.22,4.17,6.42,1,1.72,4.08,3.31,3.14,4.77-1.34,2.06-4.9,4.77-6.4,4.2-4.82-1.85-4.2,2.3-5.59,4.18a7.69,7.69,0,0,1-10.13,2.22A19.26,19.26,0,0,1,277.55,312.7Zm11.11-8.22c-3,4.11-3.46,8.07-.24,12,1.15,1.42,2.61,2.52,4.5,1.49s1.78-2.81,1.13-4.59A27.61,27.61,0,0,0,288.66,304.48Z" transform="translate(-19.35 -63.53)"/><path class="cls-3" d="M360,238.32a39.92,39.92,0,0,1,1.66-4c3.13-5.58,8.91-5.87,12.6-.67,2.71,3.81,4.06,8.31,6,12.49,3.41,7.22,6.68,14.53,10.5,21.52,2,3.66-.3,4.29-2.46,5.42s-4.26,3.41-6.19-.82c-3.9-8.58-8.2-17-12.5-25.35-.9-1.74-1.27-5.3-4.1-4.06s-1.49,4.38-.51,6.44q6.11,12.75,12.66,25.26c1.27,2.41,1.89,4.06-1.23,5-2.35.7-4.5,5-7.15-.06-6.34-12-12.55-24.07-18.08-36.49-.73-1.64-1.76-3.54.85-4.11S356.62,233.66,360,238.32Z" transform="translate(-19.35 -63.53)"/><path class="cls-3" d="M246,360.06c-4.43,1-6.34,6.79-11.43,3.46-.65,4.53-2.75,8-7.31,8.93-4.33.85-7.51-1.74-10.24-4.78-5.24-5.82-6-11.5-2.39-18.51,1.23-2.41,2.89-4.64,3.23-7.43a4.29,4.29,0,0,0-2.37-4.35,2.37,2.37,0,0,0-3,.5c-1.55,1.38-.78,2.72-.25,4.32,1.67,5-3.6,4.45-5.5,6.57-2.08,2.33-2.84-.69-3.54-1.92-3.73-6.53-2.35-12.14,3.9-16.66,6.81-4.92,12.32-4.77,17.08,1.09,4.2,5.18,7.91,10.79,11.78,16.25C238.9,351.7,241.64,356,246,360.06Zm-24.82-5.65a9.7,9.7,0,0,0,1.59,4.69c1.28,1.85,3,3.12,5.14,2,2.32-1.22,2-3.37.92-5.36a33.87,33.87,0,0,0-2.66-4.46c-.7-.95-1.07-2.73-2.52-2.42-1.23.25-1.51,1.84-1.86,3C221.53,352.79,221.35,353.72,221.19,354.41Z" transform="translate(-19.35 -63.53)"/><path class="cls-3" d="M234,316.55c.22-4.55,1.9-7.59,5.94-8.77,3.79-1.11,6.52,1.09,8.62,3.67,7.78,9.51,13.87,20.26,20.92,30.32.92,1.31.44,2-.67,2.63a19.25,19.25,0,0,0-3.56,2.35c-2.55,2.47-3.77,1-5.26-1.32-4.6-7.1-9.37-14.09-14.1-21.1a29.93,29.93,0,0,0-2.67-3.37c-.86-.95-1.85-2-3.23-.9-1.22.94-1,2.17-.53,3.48,1.44,3.82,4.12,6.82,6.3,10.15,3.31,5.08,6.7,10.12,10.24,15,1.56,2.17,1.5,3.28-.86,4.81-5.53,3.59-5.43,3.73-9.13-1.62-6.54-9.44-13.15-18.84-19.57-28.37-.84-1.24-4-2.71-1.32-4.51C227.53,317.37,229.5,312.89,234,316.55Z" transform="translate(-19.35 -63.53)"/><path class="cls-3" d="M181.91,354.1c-.07-4.68,1.87-7.83,5.9-9.07,3.82-1.17,6.74,1,9.12,3.74,7.55,8.68,13.69,18.44,20.52,27.67.86,1.16.81,1.94-.39,2.73a49,49,0,0,0-4.26,3c-1.79,1.49-2.82,1-4.1-.85-4.78-6.79-9.72-13.45-14.64-20.14a34.66,34.66,0,0,0-3.07-3.65c-.75-.77-1.65-1.72-2.86-.8a2.52,2.52,0,0,0-.83,3.41,40.68,40.68,0,0,0,2.9,4.94c4.65,6.48,9.31,13,14.12,19.33,1.41,1.87,1.2,2.66-.7,4-5.81,4.1-5.72,4.2-9.86-1.36-6.39-8.57-12.88-17.07-19.14-25.74-1-1.34-4.24-2.88-1.75-4.85S177.41,350.05,181.91,354.1Z" transform="translate(-19.35 -63.53)"/><path class="cls-3" d="M465.17,225.26c0,6.81-3.1,11.19-8.51,13.05-5.17,1.78-9.29.55-12.63-4.63a80.16,80.16,0,0,1-11.33-27.8c-1.13-5.64.62-10.48,5.56-13.76,5.19-3.45,10.38-2.65,14.19,2.32,3.23,4.21,4.95,9.25,7.12,14.05.69,1.53.29,2.27-1.12,3a49.17,49.17,0,0,0-6.18,3.47c-1.7,1.16-5.18,1-4.76,3.69a16.32,16.32,0,0,0,4.68,9.25,1.9,1.9,0,0,0,2.59.14c1.86-1.3,1.33-3.12.91-4.79-.5-2-2.36-3.7.84-5.43,5.74-3.11,6.16-3.12,7.83,3.39C464.79,222.86,465,224.61,465.17,225.26Zm-23.62-21.39c.61,1.51.12,4.84,2.93,5.46,1.27.28,4.75-.89,4.41-3.12-.38-2.56-1.13-6-4.57-6.56C442,199.26,441.42,201,441.55,203.87Z" transform="translate(-19.35 -63.53)"/><path class="cls-3" d="M188.81,395.73c-.09,3.5-2.81,6.63-6.72,8.88-4.32,2.49-8.88,2.95-12.83-.38a68.81,68.81,0,0,1-18-23.26c-2.43-5.12-.66-9.74,4.12-13.5,5.17-4.07,10.18-4.4,15.21-.76,4.06,2.94,6.59,7.3,9.64,11.17,1.29,1.64,0,2.17-1,2.88-2.71,1.93-5.35,4-8.17,5.72-2.35,1.45-2.57,2.85-.66,4.81,1.32,1.36,2.45,2.92,3.81,4.24s2.68,1.65,4.19.26.74-2.47.2-3.9-3.06-2.38-1.55-4a27.75,27.75,0,0,1,6.17-4.35c.79-.48,1.32.51,1.85,1.08C187,386.73,188.78,391.39,188.81,395.73ZM169,378.28c-1.53-2.26-2.78-4.8-5.68-5.38a2.6,2.6,0,0,0-3.28,2.61c0,2.84,1.46,5.65,4,6.32C165.39,382.18,167.57,380.14,169,378.28Z" transform="translate(-19.35 -63.53)"/><path class="cls-3" d="M401.39,266.33c-4.51,0-11.56-5.86-12.29-10.05-.35-2,1.26-2.08,2.23-2.41,1.88-.65,3.31-3.32,5.78-1.54.25.17.37.51.56.77,1.2,1.71,2.31,3.7,4.88,2.65,1.42-.58,1.5-2,1.33-3.29a4.61,4.61,0,0,0-4.38-4.31,40.37,40.37,0,0,1-10.16-2c-6-2.36-9.83-9.34-9.26-16.9.41-5.52,4.74-10.19,10.58-11.42,5-1,11.5,3.46,11.92,8.57.27,3.33-3.3,2.74-4.95,4.14-1.16,1-2.43,1.16-3.35-.74-.71-1.48-1.47-3.55-3.79-2.54a3,3,0,0,0-1.87,3.09,4.41,4.41,0,0,0,3.47,4.09,59.05,59.05,0,0,0,6.51,1.14c9,1.37,16.13,11.87,14.23,21C411.71,261.92,406.54,266.35,401.39,266.33Z" transform="translate(-19.35 -63.53)"/><path class="cls-3" d="M490.74,211.18c0,7-2.86,10.89-8.36,12.89-4.68,1.7-8.27.53-11.78-4.43a74.55,74.55,0,0,1-12.44-29.35c-1.15-6,1.66-11.09,6.9-13.29,4.79-2,8.66-.57,12.53,4.68.66.9,1.26,1.85,1.84,2.8,2.68,4.39.56,8.61-4.46,9.14-1.15.12-1.28-.63-1.64-1.24-.71-1.24-1.31-2.55-2-3.8s-1.67-2-3.11-1.31a2.16,2.16,0,0,0-.93,2.92,117.42,117.42,0,0,0,10.33,22.6c.49.8,1.28,1.66,2.32,1.26a2.25,2.25,0,0,0,1.38-2.75,18.23,18.23,0,0,0-1.52-4.52c-1.23-2.23-1.07-3.52,1.33-4.88,5.91-3.36,5.9-3.51,8.09,3.17C490,207.49,490.45,210,490.74,211.18Z" transform="translate(-19.35 -63.53)"/><path class="cls-3" d="M257.12,296.3c1.19-.18,1.47.87,2,1.63,7.64,11.6,15.25,23.23,23,34.78,1.22,1.82.78,2.5-.85,3.65-5.68,4-5.63,4.11-9.4-1.53-6.47-9.7-12.72-19.57-19.51-29-2.68-3.75-2.09-5.6,1.6-7.4A29.09,29.09,0,0,0,257.12,296.3Z" transform="translate(-19.35 -63.53)"/><path class="cls-3" d="M365.72,284.91c-1.54,2.18-4.28,2.71-6.36,4.18-1.72,1.21-2.2-.28-2.8-1.32-7.06-12.34-13.91-24.8-20.09-37.63-.73-1.51-1.05-2.56.84-3.38a38.28,38.28,0,0,0,5-2.74c1.41-.9,2.19-.68,2.91.9,6,13.28,12.77,26.14,19.9,38.82Z" transform="translate(-19.35 -63.53)"/><path class="cls-3" d="M333.89,243.58c-1.72-2.5-3.76-5.89-3.54-8.89.26-3.5,5.15-5.34,7.49-5,3.45.49,2.92,5.55,4.37,8.51C342.64,239.06,336.17,243.55,333.89,243.58Z" transform="translate(-19.35 -63.53)"/><path class="cls-3" d="M254.92,291.86c.07.81-5.93,5.61-7.09,5.68-.77,0-7-7.49-6.57-8.19,1.73-2.74,4.69-4,7.25-5.72C249.05,283.27,254.84,290.75,254.92,291.86Z" transform="translate(-19.35 -63.53)"/><path class="cls-1" d="M520.69,330.93c1.56-10,2.88-18.83,4.39-27.65.26-1.55-.15-4.12,2-4.33a41.57,41.57,0,0,1,9.84.32c.83.11.33,2,.1,3.1-3.08,13.88-6.24,27.73-9.24,41.63-.48,2.22-1.52,2.67-3.55,2.74-10.08.37-10.1.44-12.31-9.47-2.57-11.53-5-23.09-7.63-34.62-.65-2.87-.13-3.94,3.07-3.93,7.86,0,7.86-.15,9.19,7.64S519.18,322,520.69,330.93Z" transform="translate(-19.35 -63.53)"/><path class="cls-1" d="M457.59,329.22c.26-3,.38-5.53.72-8.07,1.06-8,4.65-11.22,12.47-11.33,10.45-.15,16.67,8.85,13.35,19.14-.53,1.64-1.59,1.27-2.59,1.28-3.46.05-6.94.11-10.4,0-2-.08-3.4.16-3.05,2.74s-1,5.9,2.58,6.91c2.52.73,3.43-1.13,4-3.51,1.13-5,5.06-1.91,7.62-2.23,3.16-.4,1.62,2.32,1.37,3.74-1.27,7.18-5,9.9-13.28,9.78-7.34-.11-10.81-3.05-11.87-10.2C458.07,334.61,457.86,331.73,457.59,329.22Zm13.27-5.28c2.05-.09,4.24.67,4-2.59-.16-2.35-.14-4.64-3.27-4.68s-3.28,2.18-3.52,4.55C467.83,323.8,469.14,324.21,470.86,323.94Z" transform="translate(-19.35 -63.53)"/><path class="cls-1" d="M495,346.48c-4.54,1.31-5.64-.55-5.81-5.19-.19-5.2,1.67-5.74,6.09-6,5.31-.27,5,2.4,5.17,6.21C500.65,346,499.46,347.87,495,346.48Z" transform="translate(-19.35 -63.53)"/><path class="cls-1" d="M539.82,335.72c5.46-1.77,4.91,1.82,5.27,5.68.48,5.16-1.86,5.17-5.83,5.48-5.39.42-4.89-2.45-5.14-6.17C533.8,336,535.44,334.56,539.82,335.72Z" transform="translate(-19.35 -63.53)"/><path class="cls-1" d="M132.09,254.87c0-8,.06-15,1.5-21.74,2.25-10.66,9.93-16.36,20.51-15.74,11.49.67,18.24,7,19.56,18.21.92,7.83.92,7.83-6.78,7.83a15.61,15.61,0,0,0-2.37,0c-3.48.55-5.79-.13-5.21-4.54.13-1-.48-2.17-.69-3.27-.56-2.88-2.2-4.68-5.11-4.72-3.3,0-4.81,2.34-5.18,5.21a102.59,102.59,0,0,0-.95,13.45c0,6.91.37,13.82.8,20.72.21,3.37,1.33,6.59,5.36,6.7,3.78.1,4.95-2.77,5.41-6.06.06-.47.23-.93.32-1.4.5-2.59-1-6.91,1.09-7.51,3.94-1.13,8.42-.37,12.68-.28,1.33,0,1.2,1.3,1.14,2.22-.25,3.68-.14,7.46-.93,11-2.49,11.16-9.61,16-21.72,15.21-10.69-.69-17.46-7.18-18.48-18.12C132.47,266,131.79,259.9,132.09,254.87Z" transform="translate(-19.35 -63.53)"/><path class="cls-1" d="M165.2,114.75a34,34,0,0,0-3.78,0c-2.15.24-3.3-.31-2.95-2.83a7,7,0,0,0-.41-2.83c-.88-3-2.65-5.11-5.86-3.85-2.92,1.14-3.52,4-2.72,6.86.76,2.75,2.78,4.63,5,6.26,3.67,2.76,7.39,5.46,11.09,8.16,10,7.32,8.81,26.63,1.91,33.51-6.21,6.2-13.87,6.16-21.6,4-7.12-2-10.16-7.54-11.08-14.57-1.27-9.64-1.23-9.48,8.18-9.72,3.71-.09,5.8.29,5.44,4.94-.22,2.9.27,6.29,3.89,7.45a4.1,4.1,0,0,0,4.89-2c2.06-3.23,1.47-6.47-.71-9.38-2.93-3.9-7.14-6.28-11-9.05-8.82-6.4-11.87-14.89-9.73-25.59,1.76-8.82,8.82-14,18.91-13.6,9.62.35,16.2,6.18,17.14,15.18a13.46,13.46,0,0,0,.13,1.92c1.12,4.43-.74,5.85-4.84,5.14A10.84,10.84,0,0,0,165.2,114.75Z" transform="translate(-19.35 -63.53)"/><path class="cls-2" d="M167.74,185q9.94-11.13,19.9-22.24c8.73-9.46,17.6-18.8,25.55-29,7.34-4.93,10.21-4.43,15.2,2.84,11.73,17.1,22.86,34.58,33,52.75,4.68,8.41,4.85,16.19-.62,24.27a82.25,82.25,0,0,1-15.25,17c-5.59,4.69-11,9.66-16.35,14.59s-8.51,5.38-14.14.91c-6.82-5.41-13.26-11.34-19.74-17.19a174.93,174.93,0,0,1-26.81-31C165.62,193.82,163.31,189.59,167.74,185Zm67.37,17.29c0,2.61,0,4.84,0,7.08a5.83,5.83,0,0,1-.49,1.85c-1.16,2.91-4.52,3.9-5.26,1.5-1.62-5.17-5.32-3.88-8.7-3.91-4.69,0-5.2.71-3.86,5.28,1.78,6,6.8,9.35,14.33,9.5,7.83.15,14-3.48,15.4-10.08a91.77,91.77,0,0,0,.28-35.91c-1.32-7.42-6.84-11-15-11.16-7.76-.12-13.22,3.49-15.17,10.46a34.58,34.58,0,0,0-.18,18.58c1.79,6.63,6.6,9.57,13.32,8.29C231.44,203.48,233.07,202.89,235.11,202.32Zm-25.46-8c0-7.87.06-15.74-.06-23.6,0-1.49,1.19-4.22-1.47-4.23s-6.15-2-7.85,2a10.56,10.56,0,0,1-10,6.77c-5,.08-3.77,3.3-3.95,6.14-.27,4.39,2.94,2.54,4.9,2.9a6.87,6.87,0,0,0,2.35,0c3.12-.51,4,.81,3.88,3.94-.21,8.35-.07,16.7-.07,25.05,0,9.19,0,9,8.84,9,3.14,0,3.57-1.18,3.52-3.92C209.55,210.39,209.65,202.35,209.65,194.32Z" transform="translate(-19.35 -63.53)"/><path class="cls-2" d="M48.48,165.65l.85-.86L75,139.6c6.86-5,9.4-4.81,15.52,1.3,1.57,1.57,3.26,3,4.9,4.53l15.15,14.5,16.09,15.46c2.81,2.8,5.63,5.58,8.41,8.4,7.57,7.65,7.39,11.76-.91,18.84q-20.25,17.28-40.55,34.5c-2.29,2-4.5,4-6.81,5.93-4.39,3.66-7.23,3.69-11.79.16-4.81-3.72-8-9.05-12.32-13.22-7.73-9.11-15.69-18-22.45-28-2.16-3.19-4.32-6.37-5.25-10.17-1.55-6.29-1.18-12,4.15-16.69C42.43,172.24,45.37,168.84,48.48,165.65Zm50.84,35.24c.7,2.73,0,5.39-.35,8.05-.25,1.75-1.12,3.05-2.89,3.33a2.93,2.93,0,0,1-3.48-2.55c-.43-2.44-1.9-2.49-3.71-2.43a48.75,48.75,0,0,1-5.67,0c-2.76-.21-3.08,1-2.62,3.48,1.27,6.8,6.14,10.81,14,11.15,8.71.38,15.15-3.7,16.51-11.15,1.94-10.66,1.67-21.5.43-32.19-1.2-10.31-6.9-14.14-18.07-13.56-7.79.4-12.71,5.91-13.49,15.14-.12,1.44-.2,2.89-.21,4.33C79.62,200.12,84.59,204.32,99.32,200.89ZM73.94,193c0-7.87.06-15.74-.06-23.61,0-1.49,1.16-4.27-1.5-4.19s-6-2.19-7.9,1.77c-2.14,4.53-6,6.49-10.63,6.7-2.37.12-3.11.86-3.26,3.38-.23,4.09.6,6.51,5.24,5.58s5.82,1.2,5.6,5.76c-.38,7.85-.21,15.73-.08,23.6.17,10.13-2,8.47,8.74,8.81,3.25.1,4-1.17,3.9-4.2C73.82,208.72,73.94,200.85,73.94,193Z" transform="translate(-19.35 -63.53)"/><path class="cls-2" d="M105.88,418a13.57,13.57,0,0,0-1.13-2.29,60.55,60.55,0,0,0-4.77-5.9c-3.1-3.13-1.22-4.56,1.68-5.55,4.1-1.4,5.93,1.78,7.79,4.49s1.3,5.12-.94,7.27C108,416.55,107.31,416.94,105.88,418Z" transform="translate(-19.35 -63.53)"/><path class="cls-2" d="M415.74,220c.13-1.83-.06-3.27,1.53-3.75a2.6,2.6,0,0,1,3.18,1.48,102.14,102.14,0,0,1,8.27,20.4c.36,1.36.18,2.68-1.2,3.24a2.55,2.55,0,0,1-3.29-1.19A70.28,70.28,0,0,1,415.74,220Z" transform="translate(-19.35 -63.53)"/><path class="cls-2" d="M428,250.38l-.38-1.14,1.18.14Z" transform="translate(-19.35 -63.53)"/><path class="cls-2" d="M288.66,304.48a27.61,27.61,0,0,1,5.39,8.93c.65,1.78.78,3.54-1.13,4.59s-3.35-.07-4.5-1.49C285.2,312.55,285.7,308.59,288.66,304.48Z" transform="translate(-19.35 -63.53)"/><path class="cls-2" d="M221.19,354.41c.16-.69.34-1.62.61-2.52.35-1.2.63-2.79,1.86-3,1.45-.31,1.82,1.47,2.52,2.42a33.87,33.87,0,0,1,2.66,4.46c1,2,1.4,4.14-.92,5.36-2.17,1.13-3.86-.14-5.14-2A9.7,9.7,0,0,1,221.19,354.41Z" transform="translate(-19.35 -63.53)"/><path class="cls-2" d="M441.55,203.87c-.13-2.84.47-4.61,2.77-4.22,3.44.57,4.19,4,4.57,6.56.34,2.23-3.14,3.4-4.41,3.12C441.67,208.71,442.16,205.38,441.55,203.87Z" transform="translate(-19.35 -63.53)"/><path class="cls-2" d="M169,378.28c-1.4,1.86-3.58,3.9-4.93,3.55-2.57-.67-4-3.48-4-6.32a2.6,2.6,0,0,1,3.28-2.61C166.19,373.48,167.44,376,169,378.28Z" transform="translate(-19.35 -63.53)"/><path class="cls-3" d="M470.86,323.94c-1.72.27-3-.14-2.78-2.72.24-2.37.49-4.58,3.52-4.55s3.11,2.33,3.27,4.68C475.1,324.61,472.91,323.85,470.86,323.94Z" transform="translate(-19.35 -63.53)"/><path class="cls-3" d="M235.11,202.32c-2,.57-3.67,1.16-5.35,1.48-6.72,1.28-11.53-1.66-13.32-8.29a34.58,34.58,0,0,1,.18-18.58c1.95-7,7.41-10.58,15.17-10.46,8.16.12,13.68,3.74,15,11.16a91.77,91.77,0,0,1-.28,35.91c-1.44,6.6-7.57,10.23-15.4,10.08-7.53-.15-12.55-3.48-14.33-9.5-1.34-4.57-.83-5.32,3.86-5.28,3.38,0,7.08-1.26,8.7,3.91.74,2.4,4.1,1.41,5.26-1.5a5.83,5.83,0,0,0,.49-1.85C235.15,207.16,235.11,204.93,235.11,202.32Zm.54-16.93c-.15-1.84-.2-4.1-.56-6.31a3.17,3.17,0,0,0-3.35-2.78,3,3,0,0,0-3.41,2.59,26.4,26.4,0,0,0,0,12.86c.5,2,1.72,3.12,3.73,2.88a3.4,3.4,0,0,0,3.2-3.54C235.37,189.33,235.51,187.57,235.65,185.39Z" transform="translate(-19.35 -63.53)"/><path class="cls-3" d="M209.65,194.32c0,8-.1,16.07,0,24.09.05,2.74-.38,3.93-3.52,3.92-8.84,0-8.84.16-8.84-9,0-8.35-.14-16.7.07-25.05.08-3.13-.76-4.45-3.88-3.94a6.87,6.87,0,0,1-2.35,0c-2-.36-5.17,1.49-4.9-2.9.18-2.84-1.08-6.06,3.95-6.14a10.56,10.56,0,0,0,10-6.77c1.7-4.05,5.22-2,7.85-2s1.44,2.74,1.47,4.23C209.71,178.58,209.65,186.45,209.65,194.32Z" transform="translate(-19.35 -63.53)"/><path class="cls-3" d="M99.32,200.89c-14.73,3.43-19.7-.77-19.59-16.41,0-1.44.09-2.89.21-4.33.78-9.23,5.7-14.74,13.49-15.14,11.17-.58,16.87,3.25,18.07,13.56,1.24,10.69,1.51,21.53-.43,32.19-1.36,7.45-7.8,11.53-16.51,11.15-7.82-.34-12.69-4.35-14-11.15-.46-2.48-.14-3.69,2.62-3.48a48.75,48.75,0,0,0,5.67,0c1.81-.06,3.28,0,3.71,2.43a2.93,2.93,0,0,0,3.48,2.55c1.77-.28,2.64-1.58,2.89-3.33C99.35,206.28,100,203.62,99.32,200.89ZM100,184c-.27-2.34.21-4.95-1-7.39a3.36,3.36,0,0,0-3.38-2.09A3,3,0,0,0,92.54,177a30.36,30.36,0,0,0,.11,13.38A3.23,3.23,0,0,0,96.19,193c1.62-.1,2.47-1.1,3.06-2.58C100.07,188.4,99.73,186.3,100,184Z" transform="translate(-19.35 -63.53)"/><path class="cls-3" d="M73.94,193c0,7.86-.12,15.73,0,23.6.07,3-.65,4.3-3.9,4.2-10.74-.34-8.57,1.32-8.74-8.81-.13-7.87-.3-15.75.08-23.6.22-4.56-.94-6.69-5.6-5.76s-5.47-1.49-5.24-5.58c.15-2.52.89-3.26,3.26-3.38,4.68-.21,8.49-2.17,10.63-6.7,1.87-4,5.29-1.69,7.9-1.77s1.47,2.7,1.5,4.19C74,177.25,73.94,185.12,73.94,193Z" transform="translate(-19.35 -63.53)"/><path class="cls-2" d="M235.65,185.39c-.14,2.18-.28,3.94-.36,5.7a3.4,3.4,0,0,1-3.2,3.54c-2,.24-3.23-.91-3.73-2.88a26.4,26.4,0,0,1,0-12.86,3,3,0,0,1,3.41-2.59,3.17,3.17,0,0,1,3.35,2.78C235.45,181.29,235.5,183.55,235.65,185.39Z" transform="translate(-19.35 -63.53)"/><path class="cls-2" d="M100,184c-.25,2.27.09,4.37-.73,6.39-.59,1.48-1.44,2.48-3.06,2.58a3.23,3.23,0,0,1-3.54-2.58A30.36,30.36,0,0,1,92.54,177a3,3,0,0,1,3.08-2.49A3.36,3.36,0,0,1,99,176.64C100.19,179.08,99.71,181.69,100,184Z" transform="translate(-19.35 -63.53)"/></g></svg>